<svg width="334" height="161" viewBox="0 0 334 161" fill="none" xmlns="http://www.w3.org/2000/svg">
<path d="M3.41504 46.6034V39.794H8.49113V14.1322H3.41504V7.32281H22.1402V14.1322H17.0641V39.794H22.1402V46.6034H3.41504Z" fill="black"/>
<path d="M27.7036 46.6034V17.0585H36.051V22.0671H36.3894C36.9158 20.5289 37.837 19.197 39.153 18.0715C40.4691 16.946 42.2927 16.3832 44.6239 16.3832C47.6696 16.3832 49.9632 17.3962 51.5049 19.4221C53.0841 21.4481 53.8737 24.3369 53.8737 28.0886V46.6034H45.5264V28.7639C45.5264 26.8505 45.2256 25.4436 44.6239 24.5432C44.0223 23.6053 42.9507 23.1363 41.4091 23.1363C40.7323 23.1363 40.0743 23.2301 39.435 23.4177C38.7958 23.5678 38.213 23.8304 37.6866 24.2056C37.1978 24.5807 36.803 25.0497 36.5022 25.6125C36.2014 26.1377 36.051 26.7567 36.051 27.4696V46.6034H27.7036Z" fill="black"/>
<path d="M78.335 41.6511H78.053C77.8274 42.439 77.4702 43.1893 76.9814 43.9021C76.4926 44.5774 75.891 45.1777 75.1766 45.703C74.4998 46.1907 73.7101 46.5659 72.8077 46.8285C71.9429 47.1286 71.0405 47.2787 70.1005 47.2787C66.3404 47.2787 63.5015 45.9656 61.5839 43.3394C59.6663 40.6756 58.7075 36.8301 58.7075 31.8028C58.7075 26.7755 59.6663 22.9487 61.5839 20.3225C63.5015 17.6963 66.3404 16.3832 70.1005 16.3832C72.0181 16.3832 73.7101 16.9085 75.1766 17.959C76.6806 19.0094 77.6394 20.3601 78.053 22.0108H78.335V4.95923H86.6824V46.6034H78.335V41.6511ZM72.8641 40.5256C74.4434 40.5256 75.7406 40.1504 76.7558 39.4001C77.8086 38.6122 78.335 37.543 78.335 36.1923V27.4696C78.335 26.119 77.8086 25.0685 76.7558 24.3181C75.7406 23.5303 74.4434 23.1363 72.8641 23.1363C71.2849 23.1363 69.9689 23.6991 68.916 24.8246C67.9008 25.9126 67.3932 27.3945 67.3932 29.2704V34.3915C67.3932 36.2674 67.9008 37.7681 68.916 38.8936C69.9689 39.9816 71.2849 40.5256 72.8641 40.5256Z" fill="black"/>
<path d="M105.712 47.2787C103.456 47.2787 101.444 46.9223 99.6771 46.2094C97.9099 45.4591 96.4058 44.4274 95.165 43.1143C93.9618 41.7636 93.0406 40.1316 92.4014 38.2183C91.7998 36.3049 91.499 34.1664 91.499 31.8028C91.499 29.4767 91.7998 27.3758 92.4014 25.4999C93.003 23.5865 93.8866 21.9545 95.0522 20.6039C96.2554 19.2533 97.7219 18.2216 99.4515 17.5087C101.181 16.7584 103.155 16.3832 105.374 16.3832C107.818 16.3832 109.904 16.7959 111.634 17.6213C113.401 18.4467 114.83 19.5534 115.921 20.9416C117.049 22.3297 117.857 23.943 118.346 25.7813C118.872 27.5821 119.135 29.4767 119.135 31.4652V33.9413H100.128V34.3915C100.128 36.3424 100.655 37.8994 101.708 39.0624C102.76 40.1879 104.415 40.7507 106.671 40.7507C108.4 40.7507 109.81 40.413 110.901 39.7377C111.991 39.0249 113.007 38.1807 113.947 37.2053L118.12 42.3827C116.804 43.9209 115.075 45.1214 112.931 45.9843C110.826 46.8472 108.419 47.2787 105.712 47.2787ZM105.543 22.5173C103.851 22.5173 102.516 23.0801 101.538 24.2056C100.598 25.2936 100.128 26.7567 100.128 28.5951V29.0453H110.506V28.5388C110.506 26.738 110.092 25.2936 109.265 24.2056C108.476 23.0801 107.235 22.5173 105.543 22.5173Z" fill="black"/>
<path d="M123.903 17.0585H132.25V22.0108H132.532C132.946 20.3601 133.886 19.0094 135.352 17.959C136.856 16.9085 138.567 16.3832 140.485 16.3832C144.245 16.3832 147.084 17.6963 149.001 20.3225C150.919 22.9487 151.878 26.7755 151.878 31.8028C151.878 36.8301 150.919 40.6756 149.001 43.3394C147.084 45.9656 144.245 47.2787 140.485 47.2787C139.507 47.2787 138.586 47.1286 137.721 46.8285C136.856 46.5659 136.067 46.1907 135.352 45.703C134.675 45.1777 134.092 44.5774 133.604 43.9021C133.115 43.1893 132.758 42.439 132.532 41.6511H132.25V57.8585H123.903V17.0585ZM137.721 40.5256C139.3 40.5256 140.597 39.9816 141.613 38.8936C142.665 37.7681 143.192 36.2674 143.192 34.3915V29.2704C143.192 27.3945 142.665 25.9126 141.613 24.8246C140.597 23.6991 139.3 23.1363 137.721 23.1363C136.142 23.1363 134.826 23.5303 133.773 24.3181C132.758 25.0685 132.25 26.119 132.25 27.4696V36.1923C132.25 37.543 132.758 38.6122 133.773 39.4001C134.826 40.1504 136.142 40.5256 137.721 40.5256Z" fill="black"/>
<path d="M169.441 47.2787C167.185 47.2787 165.173 46.9223 163.406 46.2094C161.639 45.4591 160.135 44.4274 158.894 43.1143C157.691 41.7636 156.769 40.1316 156.13 38.2183C155.529 36.3049 155.228 34.1664 155.228 31.8028C155.228 29.4767 155.529 27.3758 156.13 25.4999C156.732 23.5865 157.615 21.9545 158.781 20.6039C159.984 19.2533 161.451 18.2216 163.18 17.5087C164.91 16.7584 166.884 16.3832 169.102 16.3832C171.546 16.3832 173.633 16.7959 175.363 17.6213C177.13 18.4467 178.559 19.5534 179.649 20.9416C180.777 22.3297 181.586 23.943 182.075 25.7813C182.601 27.5821 182.864 29.4767 182.864 31.4652V33.9413H163.857V34.3915C163.857 36.3424 164.384 37.8994 165.436 39.0624C166.489 40.1879 168.144 40.7507 170.4 40.7507C172.129 40.7507 173.539 40.413 174.63 39.7377C175.72 39.0249 176.735 38.1807 177.675 37.2053L181.849 42.3827C180.533 43.9209 178.803 45.1214 176.66 45.9843C174.554 46.8472 172.148 47.2787 169.441 47.2787ZM169.272 22.5173C167.58 22.5173 166.245 23.0801 165.267 24.2056C164.327 25.2936 163.857 26.7567 163.857 28.5951V29.0453H174.235V28.5388C174.235 26.738 173.821 25.2936 172.994 24.2056C172.204 23.0801 170.964 22.5173 169.272 22.5173Z" fill="black"/>
<path d="M187.631 46.6034V17.0585H195.979V22.0671H196.317C196.844 20.5289 197.765 19.197 199.081 18.0715C200.397 16.946 202.221 16.3832 204.552 16.3832C207.597 16.3832 209.891 17.3962 211.433 19.4221C213.012 21.4481 213.802 24.3369 213.802 28.0886V46.6034H205.454V28.7639C205.454 26.8505 205.153 25.4436 204.552 24.5432C203.95 23.6053 202.879 23.1363 201.337 23.1363C200.66 23.1363 200.002 23.2301 199.363 23.4177C198.724 23.5678 198.141 23.8304 197.614 24.2056C197.126 24.5807 196.731 25.0497 196.43 25.6125C196.129 26.1377 195.979 26.7567 195.979 27.4696V46.6034H187.631Z" fill="black"/>
<path d="M238.263 41.6511H237.981C237.755 42.439 237.398 43.1893 236.909 43.9021C236.42 44.5774 235.819 45.1777 235.104 45.703C234.428 46.1907 233.638 46.5659 232.736 46.8285C231.871 47.1286 230.968 47.2787 230.028 47.2787C226.268 47.2787 223.429 45.9656 221.512 43.3394C219.594 40.6756 218.635 36.8301 218.635 31.8028C218.635 26.7755 219.594 22.9487 221.512 20.3225C223.429 17.6963 226.268 16.3832 230.028 16.3832C231.946 16.3832 233.638 16.9085 235.104 17.959C236.608 19.0094 237.567 20.3601 237.981 22.0108H238.263V4.95923H246.61V46.6034H238.263V41.6511ZM232.792 40.5256C234.371 40.5256 235.668 40.1504 236.684 39.4001C237.736 38.6122 238.263 37.543 238.263 36.1923V27.4696C238.263 26.119 237.736 25.0685 236.684 24.3181C235.668 23.5303 234.371 23.1363 232.792 23.1363C231.213 23.1363 229.897 23.6991 228.844 24.8246C227.829 25.9126 227.321 27.3945 227.321 29.2704V34.3915C227.321 36.2674 227.829 37.7681 228.844 38.8936C229.897 39.9816 231.213 40.5256 232.792 40.5256Z" fill="black"/>
<path d="M265.64 47.2787C263.384 47.2787 261.372 46.9223 259.605 46.2094C257.838 45.4591 256.334 44.4274 255.093 43.1143C253.89 41.7636 252.968 40.1316 252.329 38.2183C251.728 36.3049 251.427 34.1664 251.427 31.8028C251.427 29.4767 251.728 27.3758 252.329 25.4999C252.931 23.5865 253.814 21.9545 254.98 20.6039C256.183 19.2533 257.65 18.2216 259.379 17.5087C261.109 16.7584 263.083 16.3832 265.301 16.3832C267.745 16.3832 269.832 16.7959 271.562 17.6213C273.329 18.4467 274.758 19.5534 275.848 20.9416C276.976 22.3297 277.785 23.943 278.274 25.7813C278.8 27.5821 279.063 29.4767 279.063 31.4652V33.9413H260.056V34.3915C260.056 36.3424 260.583 37.8994 261.635 39.0624C262.688 40.1879 264.343 40.7507 266.599 40.7507C268.328 40.7507 269.738 40.413 270.829 39.7377C271.919 39.0249 272.934 38.1807 273.874 37.2053L278.048 42.3827C276.732 43.9209 275.002 45.1214 272.859 45.9843C270.754 46.8472 268.347 47.2787 265.64 47.2787ZM265.471 22.5173C263.779 22.5173 262.444 23.0801 261.466 24.2056C260.526 25.2936 260.056 26.7567 260.056 28.5951V29.0453H270.434V28.5388C270.434 26.738 270.02 25.2936 269.193 24.2056C268.404 23.0801 267.163 22.5173 265.471 22.5173Z" fill="black"/>
<path d="M283.831 46.6034V17.0585H292.178V22.0671H292.516C293.043 20.5289 293.964 19.197 295.28 18.0715C296.596 16.946 298.42 16.3832 300.751 16.3832C303.797 16.3832 306.09 17.3962 307.632 19.4221C309.211 21.4481 310.001 24.3369 310.001 28.0886V46.6034H301.653V28.7639C301.653 26.8505 301.352 25.4436 300.751 24.5432C300.149 23.6053 299.078 23.1363 297.536 23.1363C296.859 23.1363 296.201 23.2301 295.562 23.4177C294.923 23.5678 294.34 23.8304 293.814 24.2056C293.325 24.5807 292.93 25.0497 292.629 25.6125C292.328 26.1377 292.178 26.7567 292.178 27.4696V46.6034H283.831Z" fill="black"/>
<path d="M326.679 46.6034C323.783 46.6034 321.584 45.8718 320.08 44.4086C318.613 42.9454 317.88 40.807 317.88 37.9932V23.5303H313.706V17.0585H315.793C316.921 17.0585 317.692 16.7959 318.106 16.2707C318.519 15.7079 318.726 14.9201 318.726 13.9071V9.06736H326.227V17.0585H332.093V23.5303H326.227V40.1316H331.642V46.6034H326.679Z" fill="black"/>
<path d="M100.332 98.2787C96.8726 98.2787 93.9398 97.6972 91.5333 96.5341C89.1269 95.3336 87.0776 93.7954 85.3856 91.9195L91.0257 86.2356C93.6954 89.237 96.9854 90.7377 100.896 90.7377C103.002 90.7377 104.562 90.3063 105.577 89.4434C106.592 88.5805 107.1 87.4362 107.1 86.0105C107.1 84.9225 106.799 84.0221 106.198 83.3093C105.596 82.559 104.374 82.0525 102.532 81.7899L98.6399 81.2834C94.4662 80.7581 91.4017 79.5013 89.4465 77.5129C87.5288 75.5245 86.57 72.8795 86.57 69.578C86.57 67.8147 86.9084 66.2014 87.5852 64.7383C88.2621 63.2751 89.2209 62.0183 90.4617 60.9678C91.7401 59.9173 93.2817 59.1107 95.0866 58.5479C96.929 57.9476 99.0159 57.6475 101.347 57.6475C104.318 57.6475 106.931 58.1165 109.187 59.0544C111.443 59.9923 113.379 61.3617 114.996 63.1625L109.3 68.9027C108.36 67.8147 107.213 66.933 105.859 66.2577C104.543 65.5449 102.87 65.1885 100.839 65.1885C98.9219 65.1885 97.493 65.5261 96.553 66.2014C95.613 66.8767 95.143 67.8147 95.143 69.0152C95.143 70.3659 95.5002 71.3413 96.2146 71.9416C96.9666 72.5418 98.1698 72.9733 99.8243 73.2359L103.716 73.855C107.777 74.4927 110.785 75.7496 112.74 77.6254C114.695 79.4638 115.673 82.09 115.673 85.5041C115.673 87.3799 115.335 89.1057 114.658 90.6814C113.981 92.2572 112.985 93.6078 111.668 94.7333C110.39 95.8588 108.792 96.7405 106.874 97.3783C104.957 97.9785 102.776 98.2787 100.332 98.2787Z" fill="black"/>
<path d="M133.215 98.2787C131.034 98.2787 129.079 97.9223 127.349 97.2094C125.657 96.4966 124.21 95.4649 123.006 94.1143C121.841 92.7636 120.938 91.1316 120.299 89.2183C119.66 87.3049 119.34 85.1664 119.34 82.8028C119.34 80.4392 119.66 78.3007 120.299 76.3874C120.938 74.474 121.841 72.8607 123.006 71.5476C124.21 70.197 125.657 69.1653 127.349 68.4525C129.079 67.7396 131.034 67.3832 133.215 67.3832C135.396 67.3832 137.332 67.7396 139.024 68.4525C140.754 69.1653 142.202 70.197 143.367 71.5476C144.57 72.8607 145.492 74.474 146.131 76.3874C146.77 78.3007 147.09 80.4392 147.09 82.8028C147.09 85.1664 146.77 87.3049 146.131 89.2183C145.492 91.1316 144.57 92.7636 143.367 94.1143C142.202 95.4649 140.754 96.4966 139.024 97.2094C137.332 97.9223 135.396 98.2787 133.215 98.2787ZM133.215 91.6944C134.869 91.6944 136.148 91.1879 137.05 90.175C137.953 89.162 138.404 87.7176 138.404 85.8417V79.8202C138.404 77.9443 137.953 76.4999 137.05 75.487C136.148 74.474 134.869 73.9675 133.215 73.9675C131.561 73.9675 130.282 74.474 129.38 75.487C128.477 76.4999 128.026 77.9443 128.026 79.8202V85.8417C128.026 87.7176 128.477 89.162 129.38 90.175C130.282 91.1879 131.561 91.6944 133.215 91.6944Z" fill="black"/>
<path d="M163.866 98.2787C161.648 98.2787 159.674 97.9223 157.944 97.2094C156.215 96.4591 154.767 95.4274 153.601 94.1143C152.436 92.7636 151.552 91.1316 150.951 89.2183C150.349 87.3049 150.048 85.1664 150.048 82.8028C150.048 80.4392 150.349 78.3195 150.951 76.4436C151.552 74.5303 152.436 72.8983 153.601 71.5476C154.767 70.197 156.215 69.1653 157.944 68.4525C159.674 67.7396 161.648 67.3832 163.866 67.3832C166.874 67.3832 169.375 68.0585 171.368 69.4092C173.398 70.7598 174.846 72.6544 175.711 75.093L168.942 78.0194C168.679 76.8938 168.134 75.9372 167.307 75.1493C166.48 74.3614 165.333 73.9675 163.866 73.9675C162.174 73.9675 160.896 74.5303 160.031 75.6558C159.166 76.7438 158.734 78.2257 158.734 80.1016V85.6166C158.734 87.4925 159.166 88.9744 160.031 90.0624C160.896 91.1504 162.174 91.6944 163.866 91.6944C165.37 91.6944 166.555 91.3005 167.42 90.5126C168.322 89.6872 168.98 88.618 169.394 87.3049L175.88 90.1187C174.902 92.9325 173.379 94.9959 171.311 96.309C169.281 97.6221 166.799 98.2787 163.866 98.2787Z" fill="black"/>
<path d="M184.092 64.9071C182.4 64.9071 181.159 64.5319 180.369 63.7816C179.617 62.9937 179.241 61.9995 179.241 60.799V59.5609C179.241 58.3603 179.617 57.3849 180.369 56.6345C181.159 55.8467 182.4 55.4527 184.092 55.4527C185.784 55.4527 187.006 55.8467 187.758 56.6345C188.548 57.3849 188.942 58.3603 188.942 59.5609V60.799C188.942 61.9995 188.548 62.9937 187.758 63.7816C187.006 64.5319 185.784 64.9071 184.092 64.9071ZM179.918 68.0585H188.266V97.6034H179.918V68.0585Z" fill="black"/>
<path d="M207.28 98.2787C205.024 98.2787 203.013 97.9223 201.245 97.2094C199.478 96.4591 197.974 95.4274 196.733 94.1143C195.53 92.7636 194.609 91.1316 193.97 89.2183C193.368 87.3049 193.067 85.1664 193.067 82.8028C193.067 80.4767 193.368 78.3758 193.97 76.4999C194.571 74.5865 195.455 72.9545 196.62 71.6039C197.824 70.2533 199.29 69.2216 201.02 68.5088C202.749 67.7584 204.723 67.3832 206.942 67.3832C209.386 67.3832 211.473 67.7959 213.202 68.6213C214.97 69.4467 216.398 70.5534 217.489 71.9416C218.617 73.3297 219.425 74.943 219.914 76.7813C220.44 78.5821 220.704 80.4767 220.704 82.4652V84.9413H201.696V85.3915C201.696 87.3424 202.223 88.8994 203.276 90.0624C204.329 91.1879 205.983 91.7507 208.239 91.7507C209.969 91.7507 211.379 91.413 212.469 90.7377C213.559 90.0249 214.575 89.1807 215.515 88.2053L219.688 93.3827C218.372 94.9209 216.643 96.1214 214.5 96.9843C212.394 97.8472 209.987 98.2787 207.28 98.2787ZM207.111 73.5173C205.419 73.5173 204.084 74.0801 203.107 75.2056C202.166 76.2936 201.696 77.7567 201.696 79.5951V80.0453H212.074V79.5388C212.074 77.738 211.661 76.2936 210.833 75.2056C210.044 74.0801 208.803 73.5173 207.111 73.5173Z" fill="black"/>
<path d="M235.849 97.6034C232.953 97.6034 230.754 96.8718 229.25 95.4086C227.783 93.9454 227.05 91.807 227.05 88.9932V74.5303H222.876V68.0585H224.963C226.091 68.0585 226.862 67.7959 227.276 67.2707C227.689 66.7079 227.896 65.9201 227.896 64.9071V60.0674H235.397V68.0585H241.263V74.5303H235.397V91.1316H240.812V97.6034H235.849Z" fill="black"/>
<path d="M264.039 68.0585H271.822L260.429 102.162C259.677 104.45 258.605 106.139 257.214 107.227C255.86 108.315 253.905 108.859 251.348 108.859H246.159V102.387H251.743L252.758 99.1228L242.381 68.0585H250.672L255.014 81.8461L257.158 90.4001H257.496L259.696 81.8461L264.039 68.0585Z" fill="black"/>
<path d="M299.149 98.2787C296.968 98.2787 295.013 97.9223 293.283 97.2094C291.591 96.4966 290.143 95.4649 288.94 94.1143C287.774 92.7636 286.872 91.1316 286.233 89.2183C285.594 87.3049 285.274 85.1664 285.274 82.8028C285.274 80.4392 285.594 78.3007 286.233 76.3874C286.872 74.474 287.774 72.8607 288.94 71.5476C290.143 70.197 291.591 69.1653 293.283 68.4525C295.013 67.7396 296.968 67.3832 299.149 67.3832C301.329 67.3832 303.266 67.7396 304.958 68.4525C306.688 69.1653 308.135 70.197 309.301 71.5476C310.504 72.8607 311.425 74.474 312.065 76.3874C312.704 78.3007 313.023 80.4392 313.023 82.8028C313.023 85.1664 312.704 87.3049 312.065 89.2183C311.425 91.1316 310.504 92.7636 309.301 94.1143C308.135 95.4649 306.688 96.4966 304.958 97.2094C303.266 97.9223 301.329 98.2787 299.149 98.2787ZM299.149 91.6944C300.803 91.6944 302.082 91.1879 302.984 90.175C303.886 89.162 304.338 87.7176 304.338 85.8417V79.8202C304.338 77.9443 303.886 76.4999 302.984 75.487C302.082 74.474 300.803 73.9675 299.149 73.9675C297.494 73.9675 296.216 74.474 295.313 75.487C294.411 76.4999 293.96 77.9443 293.96 79.8202V85.8417C293.96 87.7176 294.411 89.162 295.313 90.175C296.216 91.1879 297.494 91.6944 299.149 91.6944Z" fill="black"/>
<path d="M318.979 74.5303H314.805V68.0585H318.979V64.5694C318.979 61.7181 319.731 59.5796 321.235 58.154C322.739 56.6908 324.939 55.9592 327.834 55.9592H333.248V62.431H327.326V68.0585H333.248V74.5303H327.326V97.6034H318.979V74.5303Z" fill="black"/>
<path d="M64.5265 131.496L59.394 137.686V148.603H50.821V109.323H59.394V128.006H59.7324L65.3161 120.409L74.171 109.323H83.872L70.6178 125.474L85.0565 148.603H74.9607L64.5265 131.496Z" fill="black"/>
<path d="M87.9624 148.603V119.059H96.3098V124.067H96.6482C97.1746 122.529 98.0958 121.197 99.4118 120.072C100.728 118.946 102.551 118.383 104.883 118.383C107.928 118.383 110.222 119.396 111.764 121.422C113.343 123.448 114.133 126.337 114.133 130.089V148.603H105.785V130.764C105.785 128.851 105.484 127.444 104.883 126.543C104.281 125.605 103.21 125.136 101.668 125.136C100.991 125.136 100.333 125.23 99.6938 125.418C99.0546 125.568 98.4718 125.83 97.9454 126.206C97.4566 126.581 97.0618 127.05 96.761 127.612C96.4602 128.138 96.3098 128.757 96.3098 129.47V148.603H87.9624Z" fill="black"/>
<path d="M132.446 149.279C130.265 149.279 128.31 148.922 126.58 148.209C124.888 147.497 123.441 146.465 122.238 145.114C121.072 143.764 120.169 142.132 119.53 140.218C118.891 138.305 118.571 136.166 118.571 133.803C118.571 131.439 118.891 129.301 119.53 127.387C120.169 125.474 121.072 123.861 122.238 122.548C123.441 121.197 124.888 120.165 126.58 119.452C128.31 118.74 130.265 118.383 132.446 118.383C134.627 118.383 136.563 118.74 138.255 119.452C139.985 120.165 141.433 121.197 142.598 122.548C143.802 123.861 144.723 125.474 145.362 127.387C146.001 129.301 146.321 131.439 146.321 133.803C146.321 136.166 146.001 138.305 145.362 140.218C144.723 142.132 143.802 143.764 142.598 145.114C141.433 146.465 139.985 147.497 138.255 148.209C136.563 148.922 134.627 149.279 132.446 149.279ZM132.446 142.694C134.101 142.694 135.379 142.188 136.281 141.175C137.184 140.162 137.635 138.718 137.635 136.842V130.82C137.635 128.944 137.184 127.5 136.281 126.487C135.379 125.474 134.101 124.968 132.446 124.968C130.792 124.968 129.513 125.474 128.611 126.487C127.708 127.5 127.257 128.944 127.257 130.82V136.842C127.257 138.718 127.708 140.162 128.611 141.175C129.513 142.188 130.792 142.694 132.446 142.694Z" fill="black"/>
<path d="M147.77 119.059H155.835L158.711 130.989L160.742 139.993H160.967L163.336 130.989L166.72 119.059H174.334L177.775 130.989L180.2 139.993H180.426L182.456 130.989L185.333 119.059H193.06L184.881 148.603H176.139L172.53 136.11L170.443 128.457H170.274L168.243 136.11L164.633 148.603H156.061L147.77 119.059Z" fill="black"/>
<path d="M205.176 148.603C202.318 148.603 200.212 147.909 198.859 146.521C197.543 145.133 196.885 143.126 196.885 140.5V106.959H205.232V142.132H208.955V148.603H205.176Z" fill="black"/>
<path d="M225.183 149.279C222.927 149.279 220.915 148.922 219.148 148.209C217.381 147.459 215.877 146.427 214.636 145.114C213.433 143.764 212.512 142.132 211.872 140.218C211.271 138.305 210.97 136.166 210.97 133.803C210.97 131.477 211.271 129.376 211.872 127.5C212.474 125.587 213.358 123.955 214.523 122.604C215.727 121.253 217.193 120.222 218.923 119.509C220.652 118.758 222.626 118.383 224.845 118.383C227.289 118.383 229.376 118.796 231.105 119.621C232.872 120.447 234.301 121.553 235.392 122.942C236.52 124.33 237.328 125.943 237.817 127.781C238.343 129.582 238.607 131.477 238.607 133.465V135.941H219.599V136.392C219.599 138.342 220.126 139.899 221.179 141.062C222.231 142.188 223.886 142.751 226.142 142.751C227.872 142.751 229.282 142.413 230.372 141.738C231.462 141.025 232.478 140.181 233.418 139.205L237.591 144.383C236.275 145.921 234.546 147.121 232.402 147.984C230.297 148.847 227.89 149.279 225.183 149.279ZM225.014 124.517C223.322 124.517 221.987 125.08 221.009 126.206C220.069 127.294 219.599 128.757 219.599 130.595V131.045H229.977V130.539C229.977 128.738 229.564 127.294 228.736 126.206C227.947 125.08 226.706 124.517 225.014 124.517Z" fill="black"/>
<path d="M261.535 143.651H261.253C261.027 144.439 260.67 145.189 260.181 145.902C259.692 146.577 259.091 147.178 258.376 147.703C257.7 148.191 256.91 148.566 256.008 148.828C255.143 149.129 254.24 149.279 253.3 149.279C249.54 149.279 246.701 147.966 244.784 145.339C242.866 142.676 241.907 138.83 241.907 133.803C241.907 128.776 242.866 124.949 244.784 122.323C246.701 119.696 249.54 118.383 253.3 118.383C255.218 118.383 256.91 118.908 258.376 119.959C259.88 121.009 260.839 122.36 261.253 124.011H261.535V106.959H269.882V148.603H261.535V143.651ZM256.064 142.526C257.643 142.526 258.94 142.15 259.956 141.4C261.009 140.612 261.535 139.543 261.535 138.192V129.47C261.535 128.119 261.009 127.068 259.956 126.318C258.94 125.53 257.643 125.136 256.064 125.136C254.485 125.136 253.169 125.699 252.116 126.825C251.101 127.913 250.593 129.395 250.593 131.27V136.392C250.593 138.267 251.101 139.768 252.116 140.894C253.169 141.982 254.485 142.526 256.064 142.526Z" fill="black"/>
<path d="M303.971 150.742C303.971 152.318 303.689 153.706 303.125 154.906C302.599 156.107 301.715 157.12 300.474 157.945C299.233 158.808 297.579 159.446 295.511 159.859C293.48 160.309 290.961 160.534 287.953 160.534C285.396 160.534 283.215 160.365 281.411 160.027C279.643 159.727 278.196 159.277 277.068 158.677C275.977 158.114 275.169 157.401 274.642 156.538C274.154 155.713 273.909 154.756 273.909 153.668C273.909 152.017 274.398 150.723 275.376 149.785C276.353 148.847 277.707 148.266 279.437 148.041V147.422C278.008 147.159 276.936 146.559 276.222 145.621C275.507 144.645 275.15 143.52 275.15 142.244C275.15 141.456 275.3 140.781 275.601 140.218C275.94 139.618 276.353 139.112 276.842 138.699C277.368 138.249 277.97 137.892 278.647 137.63C279.324 137.367 280.001 137.161 280.677 137.011V136.785C278.873 135.96 277.538 134.835 276.673 133.409C275.808 131.946 275.376 130.257 275.376 128.344C275.376 125.343 276.41 122.942 278.478 121.141C280.583 119.302 283.779 118.383 288.066 118.383C290.021 118.383 291.694 118.571 293.086 118.946V117.82C293.086 116.245 293.462 115.119 294.214 114.444C295.003 113.731 296.112 113.375 297.541 113.375H302.223V119.565H295.68V119.903C297.41 120.728 298.688 121.872 299.515 123.336C300.343 124.761 300.756 126.431 300.756 128.344C300.756 131.308 299.703 133.69 297.598 135.491C295.53 137.254 292.352 138.136 288.066 138.136C286.148 138.136 284.4 137.93 282.821 137.517C281.956 138.08 281.523 138.868 281.523 139.881C281.523 140.593 281.787 141.156 282.313 141.569C282.877 141.944 283.798 142.132 285.077 142.132H293.65C297.259 142.132 299.873 142.882 301.489 144.383C303.144 145.883 303.971 148.003 303.971 150.742ZM296.131 151.867C296.131 151.004 295.793 150.348 295.116 149.898C294.439 149.448 293.255 149.222 291.563 149.222H281.411C281.035 149.598 280.753 150.01 280.565 150.46C280.414 150.948 280.339 151.417 280.339 151.867C280.339 152.955 280.809 153.743 281.749 154.231C282.689 154.756 284.287 155.019 286.543 155.019H289.927C292.183 155.019 293.781 154.756 294.721 154.231C295.661 153.743 296.131 152.955 296.131 151.867ZM288.066 132.677C289.72 132.677 290.942 132.34 291.732 131.664C292.559 130.952 292.973 129.939 292.973 128.625V127.95C292.973 126.637 292.559 125.643 291.732 124.968C290.942 124.255 289.72 123.898 288.066 123.898C286.411 123.898 285.171 124.255 284.343 124.968C283.554 125.643 283.159 126.637 283.159 127.95V128.625C283.159 129.939 283.554 130.952 284.343 131.664C285.171 132.34 286.411 132.677 288.066 132.677Z" fill="black"/>
<path d="M318.573 149.279C316.317 149.279 314.305 148.922 312.538 148.209C310.771 147.459 309.267 146.427 308.026 145.114C306.823 143.764 305.902 142.132 305.262 140.218C304.661 138.305 304.36 136.166 304.36 133.803C304.36 131.477 304.661 129.376 305.262 127.5C305.864 125.587 306.748 123.955 307.913 122.604C309.117 121.253 310.583 120.222 312.313 119.509C314.042 118.758 316.016 118.383 318.235 118.383C320.679 118.383 322.766 118.796 324.495 119.621C326.262 120.447 327.691 121.553 328.782 122.942C329.91 124.33 330.718 125.943 331.207 127.781C331.733 129.582 331.997 131.477 331.997 133.465V135.941H312.989V136.392C312.989 138.342 313.516 139.899 314.569 141.062C315.621 142.188 317.276 142.751 319.532 142.751C321.262 142.751 322.672 142.413 323.762 141.738C324.852 141.025 325.868 140.181 326.808 139.205L330.981 144.383C329.665 145.921 327.936 147.121 325.792 147.984C323.687 148.847 321.28 149.279 318.573 149.279ZM318.404 124.517C316.712 124.517 315.377 125.08 314.399 126.206C313.459 127.294 312.989 128.757 312.989 130.595V131.045H323.367V130.539C323.367 128.738 322.954 127.294 322.126 126.206C321.337 125.08 320.096 124.517 318.404 124.517Z" fill="black"/>
</svg>
