<svg width="200" height="126" viewBox="0 0 200 126" fill="none" xmlns="http://www.w3.org/2000/svg">
<path d="M25 113.091C25 119.994 19.4036 125.591 12.5 125.591C5.59644 125.591 0 119.994 0 113.091V13.0909C0 6.18735 5.59644 0.590912 12.5 0.590912C19.4036 0.590912 25 6.18736 25 13.0909V113.091Z" fill="white"/>
<path d="M50 100.591C43.0964 100.591 37.5 106.187 37.5 113.091C37.5 119.994 43.0964 125.591 50 125.591H96.5C105.337 125.591 112.5 118.427 112.5 109.591V66.5909C112.5 57.7544 105.337 50.5909 96.5 50.5909H75C68.0964 50.5909 62.5 44.9945 62.5 38.0909C62.5 31.1874 68.0964 25.5909 75 25.5909H100C106.904 25.5909 112.5 19.9945 112.5 13.0909C112.5 6.18735 106.904 0.590912 100 0.590912H53.5C44.6634 0.590912 37.5 7.75435 37.5 16.5909V59.5909C37.5 68.4275 44.6634 75.5909 53.5 75.5909H75C81.9036 75.5909 87.5 81.1874 87.5 88.0909C87.5 94.9945 81.9036 100.591 75 100.591H50Z" fill="white"/>
<path d="M137.5 125.591C130.596 125.591 125 119.994 125 113.091V13.0909C125 6.18736 130.596 0.590912 137.5 0.590912C144.404 0.590912 150 6.18735 150 13.0909C150 19.9945 155.596 25.5909 162.5 25.5909H175V13.0909C175 6.18735 180.596 0.590912 187.5 0.590912C194.404 0.590912 200 6.18735 200 13.0909C200 19.9945 194.404 25.5909 187.5 25.5909H175V50.5909H184C192.837 50.5909 200 57.7544 200 66.5909V113.091C200 119.994 194.404 125.591 187.5 125.591C180.596 125.591 175 119.994 175 113.091V50.5909H166C157.163 50.5909 150 57.7544 150 66.5909V113.091C150 119.994 144.404 125.591 137.5 125.591Z" fill="white"/>
</svg>
