<svg width="160" height="161" viewBox="0 0 160 161" fill="none" xmlns="http://www.w3.org/2000/svg">
<path d="M10 160.318H80C85.5229 160.318 90 155.841 90 150.318C90 144.796 85.5229 140.318 80 140.318H30C24.4772 140.318 20 135.841 20 130.318V30.3184C20 24.7955 24.4772 20.3184 30 20.3184H110C115.523 20.3184 120 24.7955 120 30.3184C120 35.8412 124.477 40.3184 130 40.3184C135.523 40.3184 140 35.8412 140 30.3184V10.3184C140 4.79551 135.523 0.318359 130 0.318359H10C4.47715 0.318359 0 4.79551 0 10.3184V150.318C0 155.841 4.47715 160.318 10 160.318Z" fill="white"/>
<path d="M100 150.318V60.3184C100 54.7955 104.477 50.3184 110 50.3184C115.523 50.3184 120 54.7955 120 60.3184C120 65.8412 124.477 70.3184 130 70.3184H140V60.3184C140 54.7955 144.477 50.3184 150 50.3184C155.523 50.3184 160 54.7955 160 60.3184C160 65.8412 155.523 70.3184 150 70.3184H140V90.3184H150C155.523 90.3184 160 94.7955 160 100.318V150.318C160 155.841 155.523 160.318 150 160.318C144.477 160.318 140 155.841 140 150.318V90.3184H130C124.477 90.3184 120 94.7955 120 100.318V150.318C120 155.841 115.523 160.318 110 160.318C104.477 160.318 100 155.841 100 150.318Z" fill="white"/>
</svg>
