<svg width="380" height="184" viewBox="0 0 380 184" fill="none" xmlns="http://www.w3.org/2000/svg">
<path d="M4.375 53.6818V45.9378H10.135V16.7538H4.375V9.00984H25.623V16.7538H19.863V45.9378H25.623V53.6818H4.375Z" fill="white"/>
<path d="M31.936 53.6818V20.0818H41.408V25.7778H41.792C42.3893 24.0285 43.4347 22.5138 44.928 21.2338C46.4213 19.9538 48.4907 19.3138 51.136 19.3138C54.592 19.3138 57.1947 20.4658 58.944 22.7698C60.736 25.0738 61.632 28.3592 61.632 32.6258V53.6818H52.16V33.3938C52.16 31.2178 51.8187 29.6178 51.136 28.5938C50.4533 27.5272 49.2373 26.9938 47.488 26.9938C46.72 26.9938 45.9733 27.1005 45.248 27.3138C44.5227 27.4845 43.8613 27.7832 43.264 28.2098C42.7093 28.6365 42.2613 29.1698 41.92 29.8098C41.5787 30.4072 41.408 31.1112 41.408 31.9218V53.6818H31.936Z" fill="white"/>
<path d="M89.389 48.0498H89.069C88.813 48.9458 88.4077 49.7992 87.853 50.6098C87.2983 51.3778 86.6157 52.0605 85.805 52.6578C85.037 53.2125 84.141 53.6392 83.117 53.9378C82.1357 54.2792 81.1117 54.4498 80.045 54.4498C75.7783 54.4498 72.557 52.9565 70.381 49.9698C68.205 46.9405 67.117 42.5672 67.117 36.8498C67.117 31.1325 68.205 26.7805 70.381 23.7938C72.557 20.8072 75.7783 19.3138 80.045 19.3138C82.221 19.3138 84.141 19.9112 85.805 21.1058C87.5117 22.3005 88.5997 23.8365 89.069 25.7138H89.389V6.32184H98.861V53.6818H89.389V48.0498ZM83.181 46.7698C84.973 46.7698 86.445 46.3432 87.597 45.4898C88.7917 44.5938 89.389 43.3778 89.389 41.8418V31.9218C89.389 30.3858 88.7917 29.1912 87.597 28.3378C86.445 27.4418 84.973 26.9938 83.181 26.9938C81.389 26.9938 79.8957 27.6338 78.701 28.9138C77.549 30.1512 76.973 31.8365 76.973 33.9698V39.7938C76.973 41.9272 77.549 43.6338 78.701 44.9138C79.8957 46.1512 81.389 46.7698 83.181 46.7698Z" fill="white"/>
<path d="M120.455 54.4498C117.895 54.4498 115.612 54.0445 113.607 53.2338C111.601 52.3805 109.895 51.2072 108.487 49.7138C107.121 48.1778 106.076 46.3218 105.351 44.1458C104.668 41.9698 104.327 39.5378 104.327 36.8498C104.327 34.2045 104.668 31.8152 105.351 29.6818C106.033 27.5058 107.036 25.6498 108.359 24.1138C109.724 22.5778 111.388 21.4045 113.351 20.5938C115.313 19.7405 117.553 19.3138 120.071 19.3138C122.844 19.3138 125.212 19.7832 127.175 20.7218C129.18 21.6605 130.801 22.9192 132.039 24.4978C133.319 26.0765 134.236 27.9112 134.791 30.0018C135.388 32.0498 135.687 34.2045 135.687 36.4658V39.2818H114.119V39.7938C114.119 42.0125 114.716 43.7832 115.911 45.1058C117.105 46.3858 118.983 47.0258 121.543 47.0258C123.505 47.0258 125.105 46.6418 126.343 45.8738C127.58 45.0632 128.732 44.1032 129.799 42.9938L134.535 48.8818C133.041 50.6312 131.079 51.9965 128.647 52.9778C126.257 53.9592 123.527 54.4498 120.455 54.4498ZM120.263 26.2898C118.343 26.2898 116.828 26.9298 115.719 28.2098C114.652 29.4472 114.119 31.1112 114.119 33.2018V33.7138H125.895V33.1378C125.895 31.0898 125.425 29.4472 124.487 28.2098C123.59 26.9298 122.183 26.2898 120.263 26.2898Z" fill="white"/>
<path d="M141.096 20.0818H150.568V25.7138H150.888C151.357 23.8365 152.424 22.3005 154.088 21.1058C155.795 19.9112 157.736 19.3138 159.912 19.3138C164.179 19.3138 167.4 20.8072 169.576 23.7938C171.752 26.7805 172.84 31.1325 172.84 36.8498C172.84 42.5672 171.752 46.9405 169.576 49.9698C167.4 52.9565 164.179 54.4498 159.912 54.4498C158.803 54.4498 157.757 54.2792 156.776 53.9378C155.795 53.6392 154.899 53.2125 154.088 52.6578C153.32 52.0605 152.659 51.3778 152.104 50.6098C151.549 49.7992 151.144 48.9458 150.888 48.0498H150.568V66.4818H141.096V20.0818ZM156.776 46.7698C158.568 46.7698 160.04 46.1512 161.192 44.9138C162.387 43.6338 162.984 41.9272 162.984 39.7938V33.9698C162.984 31.8365 162.387 30.1512 161.192 28.9138C160.04 27.6338 158.568 26.9938 156.776 26.9938C154.984 26.9938 153.491 27.4418 152.296 28.3378C151.144 29.1912 150.568 30.3858 150.568 31.9218V41.8418C150.568 43.3778 151.144 44.5938 152.296 45.4898C153.491 46.3432 154.984 46.7698 156.776 46.7698Z" fill="white"/>
<path d="M192.77 54.4498C190.21 54.4498 187.927 54.0445 185.922 53.2338C183.916 52.3805 182.21 51.2072 180.802 49.7138C179.436 48.1778 178.391 46.3218 177.666 44.1458C176.983 41.9698 176.642 39.5378 176.642 36.8498C176.642 34.2045 176.983 31.8152 177.666 29.6818C178.348 27.5058 179.351 25.6498 180.674 24.1138C182.039 22.5778 183.703 21.4045 185.666 20.5938C187.628 19.7405 189.868 19.3138 192.386 19.3138C195.159 19.3138 197.527 19.7832 199.49 20.7218C201.495 21.6605 203.116 22.9192 204.354 24.4978C205.633 26.0765 206.551 27.9112 207.106 30.0018C207.703 32.0498 208.002 34.2045 208.002 36.4658V39.2818H186.434V39.7938C186.434 42.0125 187.031 43.7832 188.226 45.1058C189.42 46.3858 191.298 47.0258 193.858 47.0258C195.82 47.0258 197.42 46.6418 198.658 45.8738C199.895 45.0632 201.047 44.1032 202.114 42.9938L206.85 48.8818C205.356 50.6312 203.394 51.9965 200.962 52.9778C198.572 53.9592 195.842 54.4498 192.77 54.4498ZM192.578 26.2898C190.658 26.2898 189.143 26.9298 188.034 28.2098C186.967 29.4472 186.434 31.1112 186.434 33.2018V33.7138H198.21V33.1378C198.21 31.0898 197.74 29.4472 196.802 28.2098C195.906 26.9298 194.498 26.2898 192.578 26.2898Z" fill="white"/>
<path d="M213.411 53.6818V20.0818H222.883V25.7778H223.267C223.864 24.0285 224.91 22.5138 226.403 21.2338C227.896 19.9538 229.966 19.3138 232.611 19.3138C236.067 19.3138 238.67 20.4658 240.419 22.7698C242.211 25.0738 243.107 28.3592 243.107 32.6258V53.6818H233.635V33.3938C233.635 31.2178 233.294 29.6178 232.611 28.5938C231.928 27.5272 230.712 26.9938 228.963 26.9938C228.195 26.9938 227.448 27.1005 226.723 27.3138C225.998 27.4845 225.336 27.7832 224.739 28.2098C224.184 28.6365 223.736 29.1698 223.395 29.8098C223.054 30.4072 222.883 31.1112 222.883 31.9218V53.6818H213.411Z" fill="white"/>
<path d="M270.864 48.0498H270.544C270.288 48.9458 269.883 49.7992 269.328 50.6098C268.773 51.3778 268.091 52.0605 267.28 52.6578C266.512 53.2125 265.616 53.6392 264.592 53.9378C263.611 54.2792 262.587 54.4498 261.52 54.4498C257.253 54.4498 254.032 52.9565 251.856 49.9698C249.68 46.9405 248.592 42.5672 248.592 36.8498C248.592 31.1325 249.68 26.7805 251.856 23.7938C254.032 20.8072 257.253 19.3138 261.52 19.3138C263.696 19.3138 265.616 19.9112 267.28 21.1058C268.987 22.3005 270.075 23.8365 270.544 25.7138H270.864V6.32184H280.336V53.6818H270.864V48.0498ZM264.656 46.7698C266.448 46.7698 267.92 46.3432 269.072 45.4898C270.267 44.5938 270.864 43.3778 270.864 41.8418V31.9218C270.864 30.3858 270.267 29.1912 269.072 28.3378C267.92 27.4418 266.448 26.9938 264.656 26.9938C262.864 26.9938 261.371 27.6338 260.176 28.9138C259.024 30.1512 258.448 31.8365 258.448 33.9698V39.7938C258.448 41.9272 259.024 43.6338 260.176 44.9138C261.371 46.1512 262.864 46.7698 264.656 46.7698Z" fill="white"/>
<path d="M301.93 54.4498C299.37 54.4498 297.087 54.0445 295.082 53.2338C293.076 52.3805 291.37 51.2072 289.962 49.7138C288.596 48.1778 287.551 46.3218 286.826 44.1458C286.143 41.9698 285.802 39.5378 285.802 36.8498C285.802 34.2045 286.143 31.8152 286.826 29.6818C287.508 27.5058 288.511 25.6498 289.833 24.1138C291.199 22.5778 292.863 21.4045 294.826 20.5938C296.788 19.7405 299.028 19.3138 301.546 19.3138C304.319 19.3138 306.687 19.7832 308.65 20.7218C310.655 21.6605 312.276 22.9192 313.514 24.4978C314.794 26.0765 315.711 27.9112 316.266 30.0018C316.863 32.0498 317.161 34.2045 317.161 36.4658V39.2818H295.594V39.7938C295.594 42.0125 296.191 43.7832 297.385 45.1058C298.58 46.3858 300.458 47.0258 303.018 47.0258C304.98 47.0258 306.58 46.6418 307.818 45.8738C309.055 45.0632 310.207 44.1032 311.273 42.9938L316.01 48.8818C314.516 50.6312 312.554 51.9965 310.122 52.9778C307.732 53.9592 305.001 54.4498 301.93 54.4498ZM301.738 26.2898C299.818 26.2898 298.303 26.9298 297.194 28.2098C296.127 29.4472 295.594 31.1112 295.594 33.2018V33.7138H307.37V33.1378C307.37 31.0898 306.9 29.4472 305.962 28.2098C305.066 26.9298 303.658 26.2898 301.738 26.2898Z" fill="white"/>
<path d="M322.571 53.6818V20.0818H332.043V25.7778H332.427C333.024 24.0285 334.07 22.5138 335.563 21.2338C337.056 19.9538 339.126 19.3138 341.771 19.3138C345.227 19.3138 347.83 20.4658 349.579 22.7698C351.371 25.0738 352.267 28.3592 352.267 32.6258V53.6818H342.795V33.3938C342.795 31.2178 342.454 29.6178 341.771 28.5938C341.088 27.5272 339.872 26.9938 338.123 26.9938C337.355 26.9938 336.608 27.1005 335.883 27.3138C335.158 27.4845 334.496 27.7832 333.899 28.2098C333.344 28.6365 332.896 29.1698 332.555 29.8098C332.214 30.4072 332.043 31.1112 332.043 31.9218V53.6818H322.571Z" fill="white"/>
<path d="M371.192 53.6818C367.907 53.6818 365.411 52.8498 363.704 51.1858C362.04 49.5218 361.208 47.0898 361.208 43.8898V27.4418H356.472V20.0818H358.84C360.12 20.0818 360.995 19.7832 361.464 19.1858C361.933 18.5458 362.168 17.6498 362.168 16.4978V10.9938H370.68V20.0818H377.336V27.4418H370.68V46.3218H376.824V53.6818H371.192Z" fill="white"/>
<path d="M114.35 112.45C110.424 112.45 107.096 111.789 104.366 110.466C101.635 109.101 99.3095 107.351 97.3895 105.218L103.79 98.7538C106.819 102.167 110.552 103.874 114.99 103.874C117.379 103.874 119.15 103.383 120.302 102.402C121.454 101.421 122.03 100.119 122.03 98.4978C122.03 97.2605 121.688 96.2365 121.006 95.4258C120.323 94.5725 118.936 93.9965 116.846 93.6978L112.43 93.1218C107.694 92.5245 104.216 91.0952 101.998 88.8338C99.8215 86.5725 98.7335 83.5645 98.7335 79.8098C98.7335 77.8045 99.1175 75.9698 99.8855 74.3058C100.653 72.6418 101.742 71.2125 103.149 70.0178C104.6 68.8232 106.35 67.9058 108.397 67.2658C110.488 66.5832 112.856 66.2418 115.502 66.2418C118.872 66.2418 121.838 66.7752 124.397 67.8418C126.958 68.9085 129.155 70.4658 130.99 72.5138L124.526 79.0418C123.459 77.8045 122.158 76.8018 120.622 76.0338C119.128 75.2232 117.229 74.8178 114.925 74.8178C112.749 74.8178 111.128 75.2018 110.062 75.9698C108.995 76.7378 108.462 77.8045 108.462 79.1698C108.462 80.7058 108.867 81.8152 109.677 82.4978C110.531 83.1805 111.896 83.6712 113.773 83.9698L118.189 84.6738C122.798 85.3992 126.211 86.8285 128.43 88.9618C130.648 91.0525 131.758 94.0392 131.758 97.9218C131.758 100.055 131.374 102.018 130.606 103.81C129.838 105.602 128.707 107.138 127.214 108.418C125.763 109.698 123.95 110.701 121.774 111.426C119.598 112.109 117.123 112.45 114.35 112.45Z" fill="white"/>
<path d="M151.663 112.45C149.188 112.45 146.97 112.045 145.007 111.234C143.087 110.423 141.444 109.25 140.079 107.714C138.756 106.178 137.732 104.322 137.007 102.146C136.282 99.9698 135.919 97.5378 135.919 94.8498C135.919 92.1618 136.282 89.7298 137.007 87.5538C137.732 85.3778 138.756 83.5432 140.079 82.0498C141.444 80.5138 143.087 79.3405 145.007 78.5298C146.97 77.7192 149.188 77.3138 151.663 77.3138C154.138 77.3138 156.335 77.7192 158.255 78.5298C160.218 79.3405 161.86 80.5138 163.183 82.0498C164.548 83.5432 165.594 85.3778 166.319 87.5538C167.044 89.7298 167.407 92.1618 167.407 94.8498C167.407 97.5378 167.044 99.9698 166.319 102.146C165.594 104.322 164.548 106.178 163.183 107.714C161.86 109.25 160.218 110.423 158.255 111.234C156.335 112.045 154.138 112.45 151.663 112.45ZM151.663 104.962C153.54 104.962 154.991 104.386 156.015 103.234C157.039 102.082 157.551 100.439 157.551 98.3058V91.4578C157.551 89.3245 157.039 87.6818 156.015 86.5298C154.991 85.3778 153.54 84.8018 151.663 84.8018C149.786 84.8018 148.335 85.3778 147.311 86.5298C146.287 87.6818 145.775 89.3245 145.775 91.4578V98.3058C145.775 100.439 146.287 102.082 147.311 103.234C148.335 104.386 149.786 104.962 151.663 104.962Z" fill="white"/>
<path d="M186.444 112.45C183.927 112.45 181.687 112.045 179.724 111.234C177.761 110.381 176.119 109.207 174.796 107.714C173.473 106.178 172.471 104.322 171.788 102.146C171.105 99.9698 170.764 97.5378 170.764 94.8498C170.764 92.1618 171.105 89.7512 171.788 87.6178C172.471 85.4418 173.473 83.5858 174.796 82.0498C176.119 80.5138 177.761 79.3405 179.724 78.5298C181.687 77.7192 183.927 77.3138 186.444 77.3138C189.857 77.3138 192.695 78.0818 194.956 79.6178C197.26 81.1538 198.903 83.3085 199.884 86.0818L192.204 89.4098C191.905 88.1298 191.287 87.0418 190.348 86.1458C189.409 85.2498 188.108 84.8018 186.444 84.8018C184.524 84.8018 183.073 85.4418 182.092 86.7218C181.111 87.9592 180.62 89.6445 180.62 91.7778V98.0498C180.62 100.183 181.111 101.868 182.092 103.106C183.073 104.343 184.524 104.962 186.444 104.962C188.151 104.962 189.495 104.514 190.476 103.618C191.5 102.679 192.247 101.463 192.716 99.9698L200.076 103.17C198.967 106.37 197.239 108.717 194.892 110.21C192.588 111.703 189.772 112.45 186.444 112.45Z" fill="white"/>
<path d="M209.395 74.4978C207.475 74.4978 206.066 74.0712 205.171 73.2178C204.317 72.3218 203.891 71.1912 203.891 69.8258V68.4178C203.891 67.0525 204.317 65.9432 205.171 65.0898C206.066 64.1938 207.475 63.7458 209.395 63.7458C211.314 63.7458 212.701 64.1938 213.555 65.0898C214.451 65.9432 214.898 67.0525 214.898 68.4178V69.8258C214.898 71.1912 214.451 72.3218 213.555 73.2178C212.701 74.0712 211.314 74.4978 209.395 74.4978ZM204.659 78.0818H214.131V111.682H204.659V78.0818Z" fill="white"/>
<path d="M235.707 112.45C233.147 112.45 230.864 112.045 228.859 111.234C226.854 110.381 225.147 109.207 223.739 107.714C222.374 106.178 221.328 104.322 220.603 102.146C219.92 99.9698 219.579 97.5378 219.579 94.8498C219.579 92.2045 219.92 89.8152 220.603 87.6818C221.286 85.5058 222.288 83.6498 223.611 82.1138C224.976 80.5778 226.64 79.4045 228.603 78.5938C230.566 77.7405 232.806 77.3138 235.323 77.3138C238.096 77.3138 240.464 77.7832 242.427 78.7218C244.432 79.6605 246.054 80.9192 247.291 82.4978C248.571 84.0765 249.488 85.9112 250.043 88.0018C250.64 90.0498 250.939 92.2045 250.939 94.4658V97.2818H229.371V97.7938C229.371 100.013 229.968 101.783 231.163 103.106C232.358 104.386 234.235 105.026 236.795 105.026C238.758 105.026 240.358 104.642 241.595 103.874C242.832 103.063 243.984 102.103 245.051 100.994L249.787 106.882C248.294 108.631 246.331 109.997 243.899 110.978C241.51 111.959 238.779 112.45 235.707 112.45ZM235.515 84.2898C233.595 84.2898 232.08 84.9298 230.971 86.2098C229.904 87.4472 229.371 89.1112 229.371 91.2018V91.7138H241.147V91.1378C241.147 89.0898 240.678 87.4472 239.739 86.2098C238.843 84.9298 237.435 84.2898 235.515 84.2898Z" fill="white"/>
<path d="M268.125 111.682C264.839 111.682 262.343 110.85 260.637 109.186C258.973 107.522 258.141 105.09 258.141 101.89V85.4418H253.405V78.0818H255.773C257.053 78.0818 257.927 77.7832 258.397 77.1858C258.866 76.5458 259.101 75.6498 259.101 74.4978V68.9938H267.613V78.0818H274.268V85.4418H267.613V104.322H273.757V111.682H268.125Z" fill="white"/>
<path d="M300.113 78.0818H308.945L296.017 116.866C295.163 119.469 293.947 121.389 292.368 122.626C290.832 123.863 288.614 124.482 285.712 124.482H279.825V117.122H286.161L287.312 113.41L275.536 78.0818H284.945L289.872 93.7618L292.305 103.49H292.689L295.185 93.7618L300.113 78.0818Z" fill="white"/>
<path d="M339.953 112.45C337.478 112.45 335.26 112.045 333.297 111.234C331.377 110.423 329.734 109.25 328.369 107.714C327.046 106.178 326.022 104.322 325.297 102.146C324.572 99.9698 324.209 97.5378 324.209 94.8498C324.209 92.1618 324.572 89.7298 325.297 87.5538C326.022 85.3778 327.046 83.5432 328.369 82.0498C329.734 80.5138 331.377 79.3405 333.297 78.5298C335.26 77.7192 337.478 77.3138 339.953 77.3138C342.428 77.3138 344.625 77.7192 346.545 78.5298C348.508 79.3405 350.15 80.5138 351.473 82.0498C352.838 83.5432 353.884 85.3778 354.609 87.5538C355.334 89.7298 355.697 92.1618 355.697 94.8498C355.697 97.5378 355.334 99.9698 354.609 102.146C353.884 104.322 352.838 106.178 351.473 107.714C350.15 109.25 348.508 110.423 346.545 111.234C344.625 112.045 342.428 112.45 339.953 112.45ZM339.953 104.962C341.83 104.962 343.281 104.386 344.305 103.234C345.329 102.082 345.841 100.439 345.841 98.3058V91.4578C345.841 89.3245 345.329 87.6818 344.305 86.5298C343.281 85.3778 341.83 84.8018 339.953 84.8018C338.076 84.8018 336.625 85.3778 335.601 86.5298C334.577 87.6818 334.065 89.3245 334.065 91.4578V98.3058C334.065 100.439 334.577 102.082 335.601 103.234C336.625 104.386 338.076 104.962 339.953 104.962Z" fill="white"/>
<path d="M362.455 85.4418H357.719V78.0818H362.455V74.1138C362.455 70.8712 363.308 68.4392 365.015 66.8178C366.722 65.1538 369.218 64.3218 372.503 64.3218H378.647V71.6818H371.927V78.0818H378.647V85.4418H371.927V111.682H362.455V85.4418Z" fill="white"/>
<path d="M73.72 150.226L67.896 157.266V169.682H58.168V125.01H67.896V146.258H68.28L74.616 137.618L84.664 125.01H95.672L80.632 143.378L97.016 169.682H85.56L73.72 150.226Z" fill="white"/>
<path d="M100.314 169.682V136.082H109.786V141.778H110.17C110.767 140.029 111.812 138.514 113.306 137.234C114.799 135.954 116.868 135.314 119.514 135.314C122.97 135.314 125.572 136.466 127.322 138.77C129.114 141.074 130.01 144.359 130.01 148.626V169.682H120.538V149.394C120.538 147.218 120.196 145.618 119.514 144.594C118.831 143.527 117.615 142.994 115.866 142.994C115.098 142.994 114.351 143.101 113.626 143.314C112.9 143.485 112.239 143.783 111.642 144.21C111.087 144.637 110.639 145.17 110.298 145.81C109.956 146.407 109.786 147.111 109.786 147.922V169.682H100.314Z" fill="white"/>
<path d="M150.791 170.45C148.316 170.45 146.097 170.045 144.135 169.234C142.215 168.423 140.572 167.25 139.207 165.714C137.884 164.178 136.86 162.322 136.135 160.146C135.409 157.97 135.047 155.538 135.047 152.85C135.047 150.162 135.409 147.73 136.135 145.554C136.86 143.378 137.884 141.543 139.207 140.05C140.572 138.514 142.215 137.341 144.135 136.53C146.097 135.719 148.316 135.314 150.791 135.314C153.265 135.314 155.463 135.719 157.383 136.53C159.345 137.341 160.988 138.514 162.311 140.05C163.676 141.543 164.721 143.378 165.447 145.554C166.172 147.73 166.535 150.162 166.535 152.85C166.535 155.538 166.172 157.97 165.447 160.146C164.721 162.322 163.676 164.178 162.311 165.714C160.988 167.25 159.345 168.423 157.383 169.234C155.463 170.045 153.265 170.45 150.791 170.45ZM150.791 162.962C152.668 162.962 154.118 162.386 155.143 161.234C156.167 160.082 156.679 158.439 156.679 156.306V149.458C156.679 147.325 156.167 145.682 155.143 144.53C154.118 143.378 152.668 142.802 150.791 142.802C148.913 142.802 147.463 143.378 146.439 144.53C145.415 145.682 144.903 147.325 144.903 149.458V156.306C144.903 158.439 145.415 160.082 146.439 161.234C147.463 162.386 148.913 162.962 150.791 162.962Z" fill="white"/>
<path d="M168.179 136.082H177.331L180.595 149.65L182.899 159.89H183.155L185.843 149.65L189.683 136.082H198.323L202.227 149.65L204.979 159.89H205.235L207.539 149.65L210.803 136.082H219.571L210.291 169.682H200.371L196.275 155.474L193.907 146.77H193.715L191.411 155.474L187.315 169.682H177.587L168.179 136.082Z" fill="white"/>
<path d="M233.319 169.682C230.076 169.682 227.687 168.893 226.151 167.314C224.658 165.735 223.911 163.452 223.911 160.466V122.322H233.383V162.322H237.607V169.682H233.319Z" fill="white"/>
<path d="M256.022 170.45C253.462 170.45 251.179 170.045 249.174 169.234C247.169 168.381 245.462 167.207 244.054 165.714C242.689 164.178 241.643 162.322 240.918 160.146C240.235 157.97 239.894 155.538 239.894 152.85C239.894 150.204 240.235 147.815 240.918 145.682C241.601 143.506 242.603 141.65 243.926 140.114C245.291 138.578 246.955 137.405 248.918 136.594C250.881 135.741 253.121 135.314 255.638 135.314C258.411 135.314 260.779 135.783 262.742 136.722C264.747 137.66 266.369 138.919 267.606 140.498C268.886 142.077 269.803 143.911 270.358 146.002C270.955 148.05 271.254 150.204 271.254 152.466V155.282H249.686V155.794C249.686 158.013 250.283 159.783 251.478 161.106C252.673 162.386 254.55 163.026 257.11 163.026C259.073 163.026 260.673 162.642 261.91 161.874C263.147 161.063 264.299 160.103 265.366 158.994L270.102 164.882C268.609 166.631 266.646 167.997 264.214 168.978C261.825 169.959 259.094 170.45 256.022 170.45ZM255.83 142.29C253.91 142.29 252.395 142.93 251.286 144.21C250.219 145.447 249.686 147.111 249.686 149.202V149.714H261.462V149.138C261.462 147.09 260.993 145.447 260.054 144.21C259.158 142.93 257.75 142.29 255.83 142.29Z" fill="white"/>
<path d="M297.272 164.05H296.952C296.695 164.946 296.29 165.799 295.736 166.61C295.181 167.378 294.498 168.061 293.688 168.658C292.919 169.213 292.023 169.639 291 169.938C290.018 170.279 288.994 170.45 287.928 170.45C283.661 170.45 280.44 168.956 278.264 165.97C276.088 162.941 275 158.567 275 152.85C275 147.133 276.088 142.781 278.264 139.794C280.44 136.807 283.661 135.314 287.928 135.314C290.104 135.314 292.023 135.911 293.688 137.106C295.394 138.301 296.482 139.837 296.952 141.714H297.272V122.322H306.743V169.682H297.272V164.05ZM291.064 162.77C292.855 162.77 294.328 162.343 295.48 161.49C296.674 160.594 297.272 159.378 297.272 157.842V147.922C297.272 146.386 296.674 145.191 295.48 144.338C294.328 143.442 292.855 142.994 291.064 142.994C289.272 142.994 287.778 143.634 286.583 144.914C285.431 146.151 284.855 147.837 284.855 149.97V155.794C284.855 157.927 285.431 159.634 286.583 160.914C287.778 162.151 289.272 162.77 291.064 162.77Z" fill="white"/>
<path d="M345.425 172.114C345.425 173.906 345.105 175.485 344.465 176.85C343.868 178.215 342.865 179.367 341.457 180.306C340.049 181.287 338.172 182.013 335.825 182.482C333.521 182.994 330.662 183.25 327.249 183.25C324.348 183.25 321.873 183.058 319.825 182.674C317.82 182.333 316.177 181.82 314.897 181.138C313.66 180.498 312.742 179.687 312.145 178.706C311.59 177.767 311.313 176.679 311.313 175.442C311.313 173.564 311.868 172.092 312.977 171.026C314.086 169.959 315.622 169.298 317.585 169.042V168.338C315.964 168.039 314.748 167.357 313.937 166.29C313.126 165.181 312.721 163.901 312.721 162.45C312.721 161.554 312.892 160.786 313.233 160.146C313.617 159.463 314.086 158.887 314.641 158.418C315.238 157.906 315.921 157.501 316.689 157.202C317.457 156.903 318.225 156.669 318.993 156.498V156.242C316.945 155.303 315.43 154.023 314.449 152.402C313.468 150.738 312.977 148.818 312.977 146.642C312.977 143.229 314.15 140.498 316.497 138.45C318.886 136.359 322.513 135.314 327.377 135.314C329.596 135.314 331.494 135.527 333.073 135.954V134.674C333.073 132.882 333.5 131.602 334.353 130.834C335.249 130.023 336.508 129.618 338.129 129.618H343.441V136.658H336.017V137.042C337.98 137.98 339.43 139.282 340.369 140.946C341.308 142.567 341.777 144.466 341.777 146.642C341.777 150.013 340.582 152.722 338.193 154.77C335.846 156.775 332.241 157.778 327.377 157.778C325.201 157.778 323.217 157.543 321.425 157.074C320.444 157.714 319.953 158.61 319.953 159.762C319.953 160.573 320.252 161.213 320.849 161.682C321.489 162.109 322.534 162.322 323.985 162.322H333.713C337.809 162.322 340.774 163.175 342.609 164.882C344.486 166.589 345.425 168.999 345.425 172.114ZM336.529 173.394C336.529 172.413 336.145 171.666 335.377 171.154C334.609 170.642 333.265 170.386 331.345 170.386H319.825C319.398 170.812 319.078 171.282 318.865 171.794C318.694 172.349 318.609 172.882 318.609 173.394C318.609 174.631 319.142 175.527 320.209 176.082C321.276 176.679 323.089 176.978 325.649 176.978H329.489C332.049 176.978 333.862 176.679 334.929 176.082C335.996 175.527 336.529 174.631 336.529 173.394ZM327.377 151.57C329.254 151.57 330.641 151.186 331.537 150.418C332.476 149.607 332.945 148.455 332.945 146.962V146.194C332.945 144.701 332.476 143.57 331.537 142.802C330.641 141.991 329.254 141.586 327.377 141.586C325.5 141.586 324.092 141.991 323.153 142.802C322.257 143.57 321.809 144.701 321.809 146.194V146.962C321.809 148.455 322.257 149.607 323.153 150.418C324.092 151.186 325.5 151.57 327.377 151.57Z" fill="white"/>
<path d="M361.995 170.45C359.435 170.45 357.152 170.045 355.147 169.234C353.141 168.381 351.435 167.207 350.027 165.714C348.661 164.178 347.616 162.322 346.891 160.146C346.208 157.97 345.867 155.538 345.867 152.85C345.867 150.204 346.208 147.815 346.891 145.682C347.573 143.506 348.576 141.65 349.898 140.114C351.264 138.578 352.928 137.405 354.891 136.594C356.853 135.741 359.093 135.314 361.611 135.314C364.384 135.314 366.752 135.783 368.715 136.722C370.72 137.66 372.341 138.919 373.579 140.498C374.859 142.077 375.776 143.911 376.331 146.002C376.928 148.05 377.227 150.204 377.227 152.466V155.282H355.659V155.794C355.659 158.013 356.256 159.783 357.451 161.106C358.645 162.386 360.523 163.026 363.083 163.026C365.045 163.026 366.645 162.642 367.883 161.874C369.12 161.063 370.272 160.103 371.339 158.994L376.075 164.882C374.581 166.631 372.619 167.997 370.187 168.978C367.797 169.959 365.066 170.45 361.995 170.45ZM361.803 142.29C359.883 142.29 358.368 142.93 357.259 144.21C356.192 145.447 355.659 147.111 355.659 149.202V149.714H367.435V149.138C367.435 147.09 366.965 145.447 366.027 144.21C365.131 142.93 363.723 142.29 361.803 142.29Z" fill="white"/>
</svg>
