<svg width="399" height="184" viewBox="0 0 399 184" fill="none" xmlns="http://www.w3.org/2000/svg">
<path d="M3.42398 49.5487H7.90398V13.3247H3.42398V9.10069H22.752V13.3247H18.272V49.5487H22.752V53.7727H3.42398V49.5487Z" fill="white"/>
<path d="M26.4505 49.5487H30.2905V26.7007L26.4505 25.8687V22.2207L39.8265 19.4687V25.8047H40.1465C40.7438 24.098 41.8105 22.626 43.3465 21.3887C44.8825 20.1087 46.9945 19.4687 49.6825 19.4687C53.7785 19.4687 56.6585 20.514 58.3225 22.6047C60.0292 24.6527 60.8825 27.746 60.8825 31.8847V49.5487H64.7225V53.7727H47.6345V49.5487H51.1545V32.2047C51.1545 29.9434 50.7491 28.3434 49.9385 27.4047C49.1705 26.4234 47.8478 25.9327 45.9705 25.9327C45.2451 25.9327 44.5198 26.0394 43.7945 26.2527C43.0691 26.4234 42.4291 26.722 41.8745 27.1487C41.3198 27.5327 40.8718 28.0447 40.5305 28.6847C40.1891 29.282 40.0185 30.0287 40.0185 30.9247V49.5487H43.5385V53.7727H26.4505V49.5487Z" fill="white"/>
<path d="M81.1775 54.5407C79.1295 54.5407 77.2735 54.1354 75.6095 53.3247C73.9882 52.4714 72.6015 51.2767 71.4495 49.7407C70.2975 48.2047 69.4015 46.37 68.7615 44.2367C68.1641 42.0607 67.8655 39.65 67.8655 37.0047C67.8655 34.3594 68.1641 31.97 68.7615 29.8367C69.4015 27.6607 70.2975 25.8047 71.4495 24.2687C72.6015 22.7327 73.9882 21.5594 75.6095 20.7487C77.2735 19.8954 79.1295 19.4687 81.1775 19.4687C82.3721 19.4687 83.4388 19.6394 84.3775 19.9807C85.3588 20.2794 86.2122 20.6847 86.9375 21.1967C87.7055 21.7087 88.3455 22.306 88.8575 22.9887C89.3695 23.6714 89.7748 24.3754 90.0735 25.1007H90.3935V12.3647L86.5535 11.5327V7.88469L100.121 5.13269V47.3087L103.961 48.1407V51.7887L90.3935 54.5407V48.7807H90.0735C89.4762 50.274 88.4095 51.618 86.8735 52.8127C85.3801 53.9647 83.4815 54.5407 81.1775 54.5407ZM84.4415 48.6527C86.1481 48.6527 87.5562 48.1194 88.6655 47.0527C89.8175 45.986 90.3935 44.5567 90.3935 42.7647V31.1807C90.3935 29.3887 89.8175 27.9594 88.6655 26.8927C87.5562 25.826 86.1481 25.2927 84.4415 25.2927C82.6495 25.2927 81.1562 25.9114 79.9615 27.1487C78.7668 28.386 78.1695 30.1994 78.1695 32.5887V41.3567C78.1695 43.746 78.7668 45.5594 79.9615 46.7967C81.1562 48.034 82.6495 48.6527 84.4415 48.6527Z" fill="white"/>
<path d="M123.151 54.5407C120.506 54.5407 118.159 54.114 116.111 53.2607C114.106 52.3647 112.399 51.1487 110.991 49.6127C109.626 48.034 108.58 46.178 107.855 44.0447C107.13 41.8687 106.767 39.5007 106.767 36.9407C106.767 34.2527 107.13 31.8207 107.855 29.6447C108.623 27.4687 109.69 25.634 111.055 24.1407C112.463 22.6474 114.127 21.4954 116.047 20.6847C118.01 19.874 120.186 19.4687 122.575 19.4687C124.964 19.4687 127.119 19.8314 129.039 20.5567C130.959 21.282 132.58 22.3274 133.903 23.6927C135.268 25.0154 136.314 26.6367 137.039 28.5567C137.764 30.4767 138.127 32.61 138.127 34.9567V37.1327H117.071V39.6927C117.071 42.5514 117.818 44.706 119.311 46.1567C120.804 47.6074 122.788 48.3327 125.263 48.3327C127.567 48.3327 129.423 47.8207 130.831 46.7967C132.239 45.73 133.242 44.45 133.839 42.9567L137.359 45.0687C136.975 46.1354 136.42 47.2234 135.695 48.3327C134.97 49.442 134.031 50.466 132.879 51.4047C131.727 52.3007 130.34 53.0474 128.719 53.6447C127.098 54.242 125.242 54.5407 123.151 54.5407ZM117.071 33.1007H128.079V32.2047C128.079 29.1327 127.588 26.978 126.607 25.7407C125.626 24.5034 124.282 23.8847 122.575 23.8847C120.868 23.8847 119.524 24.5034 118.543 25.7407C117.562 26.978 117.071 29.1327 117.071 32.2047V33.1007Z" fill="white"/>
<path d="M141.033 62.3487H144.873V26.7007L141.033 25.8687V22.2207L154.601 19.4687V25.2287H154.985C155.582 23.7354 156.628 22.4127 158.121 21.2607C159.614 20.066 161.513 19.4687 163.817 19.4687C165.865 19.4687 167.7 19.8954 169.321 20.7487C170.985 21.5594 172.393 22.7327 173.545 24.2687C174.697 25.8047 175.572 27.6607 176.169 29.8367C176.809 31.97 177.129 34.3594 177.129 37.0047C177.129 39.65 176.809 42.0607 176.169 44.2367C175.572 46.37 174.697 48.2047 173.545 49.7407C172.393 51.2767 170.985 52.4714 169.321 53.3247C167.7 54.1354 165.865 54.5407 163.817 54.5407C161.385 54.5407 159.444 53.986 157.993 52.8767C156.542 51.7247 155.518 50.402 154.921 48.9087H154.601V62.3487H159.721V66.5727H141.033V62.3487ZM160.553 48.6527C162.345 48.6527 163.838 48.034 165.033 46.7967C166.228 45.5594 166.825 43.746 166.825 41.3567V32.5887C166.825 30.1994 166.228 28.386 165.033 27.1487C163.838 25.9114 162.345 25.2927 160.553 25.2927C158.846 25.2927 157.417 25.826 156.265 26.8927C155.156 27.9594 154.601 29.3887 154.601 31.1807V42.7647C154.601 44.5567 155.156 45.986 156.265 47.0527C157.417 48.1194 158.846 48.6527 160.553 48.6527Z" fill="white"/>
<path d="M197.653 54.5407C195.008 54.5407 192.661 54.114 190.613 53.2607C188.608 52.3647 186.901 51.1487 185.493 49.6127C184.128 48.034 183.083 46.178 182.357 44.0447C181.632 41.8687 181.269 39.5007 181.269 36.9407C181.269 34.2527 181.632 31.8207 182.357 29.6447C183.125 27.4687 184.192 25.634 185.557 24.1407C186.965 22.6474 188.629 21.4954 190.549 20.6847C192.512 19.874 194.688 19.4687 197.077 19.4687C199.467 19.4687 201.621 19.8314 203.541 20.5567C205.461 21.282 207.083 22.3274 208.405 23.6927C209.771 25.0154 210.816 26.6367 211.541 28.5567C212.267 30.4767 212.629 32.61 212.629 34.9567V37.1327H191.573V39.6927C191.573 42.5514 192.32 44.706 193.813 46.1567C195.307 47.6074 197.291 48.3327 199.765 48.3327C202.069 48.3327 203.925 47.8207 205.333 46.7967C206.742 45.73 207.744 44.45 208.341 42.9567L211.861 45.0687C211.477 46.1354 210.923 47.2234 210.197 48.3327C209.472 49.442 208.533 50.466 207.381 51.4047C206.229 52.3007 204.843 53.0474 203.221 53.6447C201.6 54.242 199.744 54.5407 197.653 54.5407ZM191.573 33.1007H202.581V32.2047C202.581 29.1327 202.091 26.978 201.109 25.7407C200.128 24.5034 198.784 23.8847 197.077 23.8847C195.371 23.8847 194.027 24.5034 193.045 25.7407C192.064 26.978 191.573 29.1327 191.573 32.2047V33.1007Z" fill="white"/>
<path d="M216.175 49.5487H220.015V26.7007L216.175 25.8687V22.2207L229.551 19.4687V25.8047H229.871C230.469 24.098 231.535 22.626 233.071 21.3887C234.607 20.1087 236.719 19.4687 239.407 19.4687C243.503 19.4687 246.383 20.514 248.047 22.6047C249.754 24.6527 250.607 27.746 250.607 31.8847V49.5487H254.447V53.7727H237.359V49.5487H240.879V32.2047C240.879 29.9434 240.474 28.3434 239.663 27.4047C238.895 26.4234 237.573 25.9327 235.695 25.9327C234.97 25.9327 234.245 26.0394 233.519 26.2527C232.794 26.4234 232.154 26.722 231.599 27.1487C231.045 27.5327 230.597 28.0447 230.255 28.6847C229.914 29.282 229.743 30.0287 229.743 30.9247V49.5487H233.263V53.7727H216.175V49.5487Z" fill="white"/>
<path d="M270.902 54.5407C268.854 54.5407 266.998 54.1354 265.334 53.3247C263.713 52.4714 262.326 51.2767 261.174 49.7407C260.022 48.2047 259.126 46.37 258.486 44.2367C257.889 42.0607 257.59 39.65 257.59 37.0047C257.59 34.3594 257.889 31.97 258.486 29.8367C259.126 27.6607 260.022 25.8047 261.174 24.2687C262.326 22.7327 263.713 21.5594 265.334 20.7487C266.998 19.8954 268.854 19.4687 270.902 19.4687C272.097 19.4687 273.164 19.6394 274.102 19.9807C275.084 20.2794 275.937 20.6847 276.662 21.1967C277.43 21.7087 278.07 22.306 278.582 22.9887C279.094 23.6714 279.5 24.3754 279.798 25.1007H280.118V12.3647L276.278 11.5327V7.88469L289.846 5.13269V47.3087L293.686 48.1407V51.7887L280.118 54.5407V48.7807H279.798C279.201 50.274 278.134 51.618 276.598 52.8127C275.105 53.9647 273.206 54.5407 270.902 54.5407ZM274.166 48.6527C275.873 48.6527 277.281 48.1194 278.39 47.0527C279.542 45.986 280.118 44.5567 280.118 42.7647V31.1807C280.118 29.3887 279.542 27.9594 278.39 26.8927C277.281 25.826 275.873 25.2927 274.166 25.2927C272.374 25.2927 270.881 25.9114 269.686 27.1487C268.492 28.386 267.894 30.1994 267.894 32.5887V41.3567C267.894 43.746 268.492 45.5594 269.686 46.7967C270.881 48.034 272.374 48.6527 274.166 48.6527Z" fill="white"/>
<path d="M312.876 54.5407C310.231 54.5407 307.884 54.114 305.836 53.2607C303.831 52.3647 302.124 51.1487 300.716 49.6127C299.351 48.034 298.305 46.178 297.58 44.0447C296.855 41.8687 296.492 39.5007 296.492 36.9407C296.492 34.2527 296.855 31.8207 297.58 29.6447C298.348 27.4687 299.415 25.634 300.78 24.1407C302.188 22.6474 303.852 21.4954 305.772 20.6847C307.735 19.874 309.911 19.4687 312.3 19.4687C314.689 19.4687 316.844 19.8314 318.764 20.5567C320.684 21.282 322.305 22.3274 323.628 23.6927C324.993 25.0154 326.039 26.6367 326.764 28.5567C327.489 30.4767 327.852 32.61 327.852 34.9567V37.1327H306.796V39.6927C306.796 42.5514 307.543 44.706 309.036 46.1567C310.529 47.6074 312.513 48.3327 314.988 48.3327C317.292 48.3327 319.148 47.8207 320.556 46.7967C321.964 45.73 322.967 44.45 323.564 42.9567L327.084 45.0687C326.7 46.1354 326.145 47.2234 325.42 48.3327C324.695 49.442 323.756 50.466 322.604 51.4047C321.452 52.3007 320.065 53.0474 318.444 53.6447C316.823 54.242 314.967 54.5407 312.876 54.5407ZM306.796 33.1007H317.804V32.2047C317.804 29.1327 317.313 26.978 316.332 25.7407C315.351 24.5034 314.007 23.8847 312.3 23.8847C310.593 23.8847 309.249 24.5034 308.268 25.7407C307.287 26.978 306.796 29.1327 306.796 32.2047V33.1007Z" fill="white"/>
<path d="M331.398 49.5487H335.238V26.7007L331.398 25.8687V22.2207L344.774 19.4687V25.8047H345.094C345.691 24.098 346.758 22.626 348.294 21.3887C349.83 20.1087 351.942 19.4687 354.63 19.4687C358.726 19.4687 361.606 20.514 363.27 22.6047C364.977 24.6527 365.83 27.746 365.83 31.8847V49.5487H369.67V53.7727H352.582V49.5487H356.102V32.2047C356.102 29.9434 355.697 28.3434 354.886 27.4047C354.118 26.4234 352.795 25.9327 350.918 25.9327C350.193 25.9327 349.467 26.0394 348.742 26.2527C348.017 26.4234 347.377 26.722 346.822 27.1487C346.267 27.5327 345.819 28.0447 345.478 28.6847C345.137 29.282 344.966 30.0287 344.966 30.9247V49.5487H348.486V53.7727H331.398V49.5487Z" fill="white"/>
<path d="M383.373 54.4127C380.813 54.4127 378.914 53.858 377.677 52.7487C376.482 51.5967 375.885 49.9114 375.885 47.6927V24.7167H371.405V20.2367H373.133C374.541 20.2367 375.565 19.938 376.205 19.3407C376.888 18.7007 377.528 17.762 378.125 16.5247L380.813 10.9567H385.613V20.2367H392.973V24.7167H385.613V49.4207H392.973V53.1967C392.29 53.4954 391.074 53.7727 389.325 54.0287C387.576 54.2847 385.592 54.4127 383.373 54.4127Z" fill="white"/>
<path d="M118.373 112.541C117.093 112.541 115.92 112.391 114.853 112.093C113.829 111.837 112.912 111.495 112.101 111.069C111.333 110.599 110.672 110.109 110.117 109.597C109.605 109.042 109.221 108.53 108.965 108.061H108.709V111.773H101.285V98.7167H108.709V101.469C108.709 103.773 109.52 105.415 111.141 106.397C112.763 107.335 114.981 107.805 117.797 107.805C120.741 107.805 122.917 107.207 124.325 106.013C125.776 104.818 126.501 103.261 126.501 101.341C126.501 100.402 126.373 99.5914 126.117 98.9087C125.904 98.226 125.52 97.65 124.965 97.1807C124.411 96.6687 123.664 96.242 122.725 95.9007C121.787 95.5167 120.613 95.1754 119.205 94.8767L116.325 94.2367C114.149 93.81 112.144 93.234 110.309 92.5087C108.517 91.7407 106.981 90.7594 105.701 89.5647C104.421 88.37 103.419 86.9407 102.693 85.2767C102.011 83.6127 101.669 81.65 101.669 79.3887C101.669 77.4687 102.011 75.7194 102.693 74.1407C103.376 72.5194 104.357 71.1327 105.637 69.9807C106.917 68.8287 108.496 67.9327 110.373 67.2927C112.293 66.6527 114.469 66.3327 116.901 66.3327C118.224 66.3327 119.397 66.482 120.421 66.7807C121.488 67.0367 122.405 67.378 123.173 67.8047C123.984 68.2314 124.645 68.722 125.157 69.2767C125.669 69.7887 126.053 70.2794 126.309 70.7487H126.565V67.1007H133.989V80.1567H126.565V77.3407C126.565 75.0794 125.776 73.4794 124.197 72.5407C122.619 71.5594 120.571 71.0687 118.053 71.0687C115.152 71.0687 113.019 71.6874 111.653 72.9247C110.331 74.1194 109.669 75.57 109.669 77.2767C109.669 78.258 109.819 79.09 110.117 79.7727C110.416 80.4554 110.885 81.0527 111.525 81.5647C112.208 82.0767 113.083 82.5247 114.149 82.9087C115.216 83.25 116.517 83.5914 118.053 83.9327L120.741 84.4447C122.96 84.914 124.944 85.5327 126.693 86.3007C128.485 87.026 129.979 87.9647 131.173 89.1167C132.411 90.2687 133.349 91.634 133.989 93.2127C134.629 94.7487 134.949 96.5407 134.949 98.5887C134.949 100.594 134.565 102.45 133.797 104.157C133.029 105.863 131.92 107.335 130.469 108.573C129.061 109.81 127.333 110.791 125.285 111.517C123.237 112.199 120.933 112.541 118.373 112.541Z" fill="white"/>
<path d="M155.551 107.933C159.477 107.933 161.439 105.586 161.439 100.893V89.1167C161.439 84.4234 159.477 82.0767 155.551 82.0767C151.626 82.0767 149.663 84.4234 149.663 89.1167V100.893C149.663 105.586 151.626 107.933 155.551 107.933ZM155.551 112.541C153.119 112.541 150.901 112.157 148.895 111.389C146.933 110.578 145.226 109.426 143.775 107.933C142.367 106.439 141.279 104.605 140.511 102.429C139.743 100.253 139.359 97.778 139.359 95.0047C139.359 92.2314 139.743 89.7567 140.511 87.5807C141.279 85.4047 142.367 83.57 143.775 82.0767C145.226 80.5834 146.933 79.4527 148.895 78.6847C150.901 77.874 153.119 77.4687 155.551 77.4687C157.983 77.4687 160.181 77.874 162.143 78.6847C164.149 79.4527 165.855 80.5834 167.263 82.0767C168.714 83.57 169.823 85.4047 170.591 87.5807C171.359 89.7567 171.743 92.2314 171.743 95.0047C171.743 97.778 171.359 100.253 170.591 102.429C169.823 104.605 168.714 106.439 167.263 107.933C165.855 109.426 164.149 110.578 162.143 111.389C160.181 112.157 157.983 112.541 155.551 112.541Z" fill="white"/>
<path d="M192.338 112.541C189.65 112.541 187.282 112.093 185.234 111.197C183.229 110.301 181.522 109.063 180.114 107.485C178.749 105.906 177.704 104.05 176.978 101.917C176.296 99.7834 175.954 97.458 175.954 94.9407C175.954 92.1247 176.402 89.65 177.298 87.5167C178.194 85.3407 179.41 83.506 180.946 82.0127C182.525 80.5194 184.36 79.3887 186.45 78.6207C188.584 77.8527 190.866 77.4687 193.298 77.4687C197.224 77.4687 200.232 78.2794 202.322 79.9007C204.456 81.522 205.522 83.57 205.522 86.0447C205.522 87.666 205.074 88.9674 204.178 89.9487C203.282 90.8874 202.045 91.3567 200.466 91.3567C198.888 91.3567 197.672 90.9514 196.818 90.1407C195.965 89.2874 195.538 88.178 195.538 86.8127C195.538 85.7034 195.816 84.786 196.37 84.0607C196.968 83.3354 197.629 82.802 198.354 82.4607V82.0767C197.928 81.9487 197.416 81.8207 196.818 81.6927C196.264 81.5647 195.496 81.5007 194.514 81.5007C191.912 81.5007 189.885 82.3327 188.434 83.9967C186.984 85.618 186.258 87.9647 186.258 91.0367V97.6927C186.258 100.509 186.92 102.663 188.242 104.157C189.565 105.607 191.4 106.333 193.746 106.333C196.136 106.333 198.034 105.778 199.442 104.669C200.85 103.559 201.853 102.258 202.45 100.765L206.034 102.877C205.65 103.943 205.096 105.053 204.37 106.205C203.688 107.357 202.792 108.402 201.682 109.341C200.573 110.279 199.25 111.047 197.714 111.645C196.178 112.242 194.386 112.541 192.338 112.541Z" fill="white"/>
<path d="M217.5 73.8207C215.708 73.8207 214.3 73.33 213.276 72.3487C212.295 71.3674 211.804 70.0447 211.804 68.3807V68.0607C211.804 66.3967 212.295 65.074 213.276 64.0927C214.3 63.1114 215.708 62.6207 217.5 62.6207C219.292 62.6207 220.679 63.1114 221.66 64.0927C222.684 65.074 223.196 66.3967 223.196 68.0607V68.3807C223.196 70.0447 222.684 71.3674 221.66 72.3487C220.679 73.33 219.292 73.8207 217.5 73.8207ZM208.86 107.549H212.7V84.7007L208.86 83.8687V80.2207L222.428 77.4687V107.549H226.268V111.773H208.86V107.549Z" fill="white"/>
<path d="M245.466 112.541C242.821 112.541 240.474 112.114 238.426 111.261C236.421 110.365 234.714 109.149 233.306 107.613C231.941 106.034 230.895 104.178 230.17 102.045C229.445 99.8687 229.082 97.5007 229.082 94.9407C229.082 92.2527 229.445 89.8207 230.17 87.6447C230.938 85.4687 232.005 83.634 233.37 82.1407C234.778 80.6474 236.442 79.4954 238.362 78.6847C240.325 77.874 242.501 77.4687 244.89 77.4687C247.279 77.4687 249.434 77.8314 251.354 78.5567C253.274 79.282 254.895 80.3274 256.218 81.6927C257.583 83.0154 258.629 84.6367 259.354 86.5567C260.079 88.4767 260.442 90.61 260.442 92.9567V95.1327H239.386V97.6927C239.386 100.551 240.133 102.706 241.626 104.157C243.119 105.607 245.103 106.333 247.578 106.333C249.882 106.333 251.738 105.821 253.146 104.797C254.554 103.73 255.557 102.45 256.154 100.957L259.674 103.069C259.29 104.135 258.735 105.223 258.01 106.333C257.285 107.442 256.346 108.466 255.194 109.405C254.042 110.301 252.655 111.047 251.034 111.645C249.413 112.242 247.557 112.541 245.466 112.541ZM239.386 91.1007H250.394V90.2047C250.394 87.1327 249.903 84.978 248.922 83.7407C247.941 82.5034 246.597 81.8847 244.89 81.8847C243.183 81.8847 241.839 82.5034 240.858 83.7407C239.877 84.978 239.386 87.1327 239.386 90.2047V91.1007Z" fill="white"/>
<path d="M274.868 112.413C272.308 112.413 270.409 111.858 269.172 110.749C267.977 109.597 267.38 107.911 267.38 105.693V82.7167H262.9V78.2367H264.628C266.036 78.2367 267.06 77.938 267.7 77.3407C268.383 76.7007 269.023 75.762 269.62 74.5247L272.308 68.9567H277.108V78.2367H284.468V82.7167H277.108V107.421H284.468V111.197C283.785 111.495 282.569 111.773 280.82 112.029C279.071 112.285 277.087 112.413 274.868 112.413Z" fill="white"/>
<path d="M292.527 125.341C289.967 125.341 287.983 124.701 286.576 123.421C285.168 122.183 284.464 120.69 284.464 118.941C284.464 117.405 284.89 116.21 285.743 115.357C286.639 114.503 287.855 114.077 289.391 114.077C290.885 114.077 292.037 114.546 292.848 115.485C293.658 116.423 294.063 117.511 294.063 118.749C294.063 119.303 293.978 119.815 293.807 120.285C293.637 120.797 293.445 121.202 293.231 121.501L293.359 121.885C293.53 121.927 293.765 121.949 294.063 121.949C295.173 121.949 296.197 121.351 297.135 120.157C298.074 118.962 298.97 117.255 299.823 115.037L300.464 113.373L288.303 82.4607H285.231V78.2367H302.063V82.4607H298.479L305.199 101.853H305.583L312.367 82.4607H308.783V78.2367H320.559V82.4607H317.551L304.111 115.229C303.642 116.381 303.087 117.554 302.447 118.749C301.807 119.986 301.039 121.074 300.143 122.013C299.247 122.994 298.181 123.783 296.943 124.381C295.706 125.021 294.234 125.341 292.527 125.341Z" fill="white"/>
<path d="M352.029 107.933C355.954 107.933 357.917 105.586 357.917 100.893V89.1167C357.917 84.4234 355.954 82.0767 352.029 82.0767C348.104 82.0767 346.141 84.4234 346.141 89.1167V100.893C346.141 105.586 348.104 107.933 352.029 107.933ZM352.029 112.541C349.597 112.541 347.378 112.157 345.373 111.389C343.41 110.578 341.704 109.426 340.253 107.933C338.845 106.439 337.757 104.605 336.989 102.429C336.221 100.253 335.837 97.778 335.837 95.0047C335.837 92.2314 336.221 89.7567 336.989 87.5807C337.757 85.4047 338.845 83.57 340.253 82.0767C341.704 80.5834 343.41 79.4527 345.373 78.6847C347.378 77.874 349.597 77.4687 352.029 77.4687C354.461 77.4687 356.658 77.874 358.621 78.6847C360.626 79.4527 362.333 80.5834 363.741 82.0767C365.192 83.57 366.301 85.4047 367.069 87.5807C367.837 89.7567 368.221 92.2314 368.221 95.0047C368.221 97.778 367.837 100.253 367.069 102.429C366.301 104.605 365.192 106.439 363.741 107.933C362.333 109.426 360.626 110.578 358.621 111.389C356.658 112.157 354.461 112.541 352.029 112.541Z" fill="white"/>
<path d="M371.743 107.549H375.583V82.7167H371.743V78.2367H375.583V75.6127C375.583 71.6447 376.82 68.5727 379.295 66.3967C381.77 64.2207 385.247 63.1327 389.727 63.1327C391.22 63.1327 392.5 63.3247 393.567 63.7087C394.676 64.05 395.594 64.5194 396.319 65.1167C397.044 65.714 397.578 66.3967 397.919 67.1647C398.26 67.9327 398.431 68.722 398.431 69.5327C398.431 70.898 398.047 72.0074 397.279 72.8607C396.511 73.714 395.444 74.1407 394.079 74.1407C392.671 74.1407 391.604 73.7567 390.879 72.9887C390.154 72.2207 389.791 71.282 389.791 70.1727C389.791 69.3194 389.962 68.658 390.303 68.1887C390.687 67.7194 391.071 67.3994 391.455 67.2287V66.8447C391.028 66.7594 390.516 66.7167 389.919 66.7167C388.298 66.7167 387.124 67.2714 386.399 68.3807C385.674 69.49 385.311 71.3247 385.311 73.8847V78.2367H391.711V82.7167H385.311V107.549H390.431V111.773H371.743V107.549Z" fill="white"/>
<path d="M54.5515 165.549H59.0315V129.325H54.5515V125.101H73.8795V129.325H69.3995V147.373H69.8475L77.0795 139.437L86.4235 129.325H81.9435V125.101H97.5595V129.325H92.8875L81.4315 141.229L96.2795 165.549H100.119V169.773H80.0875V165.549H84.2475L74.3275 148.269L69.3995 153.389V165.549H73.8795V169.773H54.5515V165.549Z" fill="white"/>
<path d="M101.453 165.549H105.293V142.701L101.453 141.869V138.221L114.829 135.469V141.805H115.149C115.746 140.098 116.813 138.626 118.349 137.389C119.885 136.109 121.997 135.469 124.685 135.469C128.781 135.469 131.661 136.514 133.325 138.605C135.032 140.653 135.885 143.746 135.885 147.885V165.549H139.725V169.773H122.637V165.549H126.157V148.205C126.157 145.943 125.752 144.343 124.941 143.405C124.173 142.423 122.85 141.933 120.973 141.933C120.248 141.933 119.522 142.039 118.797 142.253C118.072 142.423 117.432 142.722 116.877 143.149C116.322 143.533 115.874 144.045 115.533 144.685C115.192 145.282 115.021 146.029 115.021 146.925V165.549H118.541V169.773H101.453V165.549Z" fill="white"/>
<path d="M158.804 165.933C162.729 165.933 164.692 163.586 164.692 158.893V147.117C164.692 142.423 162.729 140.077 158.804 140.077C154.879 140.077 152.916 142.423 152.916 147.117V158.893C152.916 163.586 154.879 165.933 158.804 165.933ZM158.804 170.541C156.372 170.541 154.153 170.157 152.148 169.389C150.185 168.578 148.479 167.426 147.028 165.933C145.62 164.439 144.532 162.605 143.764 160.429C142.996 158.253 142.612 155.778 142.612 153.005C142.612 150.231 142.996 147.757 143.764 145.581C144.532 143.405 145.62 141.57 147.028 140.077C148.479 138.583 150.185 137.453 152.148 136.685C154.153 135.874 156.372 135.469 158.804 135.469C161.236 135.469 163.433 135.874 165.396 136.685C167.401 137.453 169.108 138.583 170.516 140.077C171.967 141.57 173.076 143.405 173.844 145.581C174.612 147.757 174.996 150.231 174.996 153.005C174.996 155.778 174.612 158.253 173.844 160.429C173.076 162.605 171.967 164.439 170.516 165.933C169.108 167.426 167.401 168.578 165.396 169.389C163.433 170.157 161.236 170.541 158.804 170.541Z" fill="white"/>
<path d="M179.064 140.461H176.056V136.237H192.504V140.461H188.92L193.72 160.045H194.104L200.76 136.237H208.44L215.928 160.109H216.312L220.92 140.461H216.76V136.237H228.92V140.461H225.912L217.272 169.773H210.168L202.744 146.413H202.36L194.808 169.773H187.704L179.064 140.461Z" fill="white"/>
<path d="M230.723 165.549H234.563V128.365L230.723 127.533V123.885L244.291 121.133V165.549H248.131V169.773H230.723V165.549Z" fill="white"/>
<path d="M267.406 170.541C264.761 170.541 262.414 170.114 260.366 169.261C258.361 168.365 256.654 167.149 255.246 165.613C253.881 164.034 252.835 162.178 252.11 160.045C251.385 157.869 251.022 155.501 251.022 152.941C251.022 150.253 251.385 147.821 252.11 145.645C252.878 143.469 253.945 141.634 255.31 140.141C256.718 138.647 258.382 137.495 260.302 136.685C262.265 135.874 264.441 135.469 266.83 135.469C269.219 135.469 271.374 135.831 273.294 136.557C275.214 137.282 276.835 138.327 278.158 139.693C279.523 141.015 280.569 142.637 281.294 144.557C282.019 146.477 282.382 148.61 282.382 150.957V153.133H261.326V155.693C261.326 158.551 262.073 160.706 263.566 162.157C265.059 163.607 267.043 164.333 269.518 164.333C271.822 164.333 273.678 163.821 275.086 162.797C276.494 161.73 277.497 160.45 278.094 158.957L281.614 161.069C281.23 162.135 280.675 163.223 279.95 164.333C279.225 165.442 278.286 166.466 277.134 167.405C275.982 168.301 274.595 169.047 272.974 169.645C271.353 170.242 269.497 170.541 267.406 170.541ZM261.326 149.101H272.334V148.205C272.334 145.133 271.843 142.978 270.862 141.741C269.881 140.503 268.537 139.885 266.83 139.885C265.123 139.885 263.779 140.503 262.798 141.741C261.817 142.978 261.326 145.133 261.326 148.205V149.101Z" fill="white"/>
<path d="M299.935 170.541C297.887 170.541 296.031 170.135 294.367 169.325C292.746 168.471 291.359 167.277 290.207 165.741C289.055 164.205 288.159 162.37 287.519 160.237C286.922 158.061 286.623 155.65 286.623 153.005C286.623 150.359 286.922 147.97 287.519 145.837C288.159 143.661 289.055 141.805 290.207 140.269C291.359 138.733 292.746 137.559 294.367 136.749C296.031 135.895 297.887 135.469 299.935 135.469C301.13 135.469 302.196 135.639 303.135 135.981C304.116 136.279 304.97 136.685 305.695 137.197C306.463 137.709 307.103 138.306 307.615 138.989C308.127 139.671 308.532 140.375 308.831 141.101H309.151V128.365L305.311 127.533V123.885L318.879 121.133V163.309L322.719 164.141V167.789L309.151 170.541V164.781H308.831C308.234 166.274 307.167 167.618 305.631 168.813C304.138 169.965 302.239 170.541 299.935 170.541ZM303.199 164.653C304.906 164.653 306.314 164.119 307.423 163.053C308.575 161.986 309.151 160.557 309.151 158.765V147.181C309.151 145.389 308.575 143.959 307.423 142.893C306.314 141.826 304.906 141.293 303.199 141.293C301.407 141.293 299.914 141.911 298.719 143.149C297.524 144.386 296.927 146.199 296.927 148.589V157.357C296.927 159.746 297.524 161.559 298.719 162.797C299.914 164.034 301.407 164.653 303.199 164.653Z" fill="white"/>
<path d="M340.884 183.341C337.727 183.341 335.103 183.17 333.012 182.829C330.922 182.487 329.236 181.997 327.956 181.357C326.719 180.717 325.844 179.949 325.332 179.053C324.82 178.157 324.564 177.133 324.564 175.981C324.564 174.359 325.247 173.037 326.612 172.013C328.02 171.031 329.748 170.37 331.796 170.029V169.773C330.303 169.431 329.087 168.727 328.148 167.661C327.253 166.551 326.805 165.143 326.805 163.437C326.805 161.474 327.444 159.959 328.724 158.893C330.047 157.783 331.626 157.015 333.46 156.589V156.333C331.284 155.479 329.599 154.242 328.404 152.621C327.252 150.999 326.676 148.973 326.676 146.541C326.676 144.749 327.018 143.17 327.701 141.805C328.383 140.439 329.343 139.287 330.581 138.349C331.818 137.41 333.311 136.706 335.06 136.237C336.81 135.725 338.751 135.469 340.884 135.469C342.421 135.469 343.85 135.597 345.172 135.853C346.538 136.109 347.839 136.535 349.077 137.133C349.546 132.439 351.658 130.093 355.413 130.093C356.65 130.093 357.674 130.455 358.484 131.181C359.338 131.863 359.764 132.866 359.764 134.189C359.764 135.426 359.38 136.429 358.612 137.197C357.887 137.922 356.842 138.285 355.477 138.285C353.898 138.285 352.66 137.751 351.764 136.685H351.508V138.605C352.66 139.543 353.556 140.653 354.197 141.933C354.879 143.213 355.22 144.749 355.22 146.541C355.22 148.333 354.879 149.911 354.197 151.277C353.514 152.642 352.533 153.794 351.253 154.733C350.015 155.671 348.522 156.397 346.772 156.909C345.023 157.378 343.082 157.613 340.948 157.613C340.052 157.613 339.199 157.57 338.388 157.485C337.578 157.399 336.788 157.271 336.02 157.101C334.826 157.869 334.228 158.85 334.228 160.045C334.228 160.941 334.57 161.623 335.253 162.093C335.935 162.519 337.023 162.733 338.516 162.733H345.94C348.244 162.733 350.207 162.967 351.828 163.437C353.492 163.863 354.837 164.482 355.861 165.293C356.884 166.103 357.631 167.085 358.1 168.237C358.57 169.346 358.805 170.605 358.805 172.013C358.805 175.554 357.332 178.327 354.388 180.333C351.444 182.338 346.943 183.341 340.884 183.341ZM340.948 153.197C344.148 153.197 345.749 151.234 345.749 147.309V145.773C345.749 141.847 344.148 139.885 340.948 139.885C337.748 139.885 336.148 141.847 336.148 145.773V147.309C336.148 151.234 337.748 153.197 340.948 153.197ZM332.436 175.149C332.436 176.514 332.97 177.517 334.036 178.157C335.146 178.839 336.916 179.181 339.348 179.181H343.444C348.351 179.181 350.805 177.73 350.805 174.829C350.805 173.421 350.314 172.482 349.332 172.013C348.394 171.543 347.007 171.309 345.172 171.309H334.292C333.695 171.778 333.226 172.29 332.884 172.845C332.586 173.442 332.436 174.21 332.436 175.149Z" fill="white"/>
<path d="M376.566 170.541C373.921 170.541 371.574 170.114 369.526 169.261C367.521 168.365 365.814 167.149 364.406 165.613C363.041 164.034 361.995 162.178 361.27 160.045C360.545 157.869 360.182 155.501 360.182 152.941C360.182 150.253 360.545 147.821 361.27 145.645C362.038 143.469 363.105 141.634 364.47 140.141C365.878 138.647 367.542 137.495 369.462 136.685C371.425 135.874 373.601 135.469 375.99 135.469C378.379 135.469 380.534 135.831 382.454 136.557C384.374 137.282 385.995 138.327 387.318 139.693C388.683 141.015 389.729 142.637 390.454 144.557C391.179 146.477 391.542 148.61 391.542 150.957V153.133H370.486V155.693C370.486 158.551 371.233 160.706 372.726 162.157C374.219 163.607 376.203 164.333 378.678 164.333C380.982 164.333 382.838 163.821 384.246 162.797C385.654 161.73 386.657 160.45 387.254 158.957L390.774 161.069C390.39 162.135 389.835 163.223 389.11 164.333C388.385 165.442 387.446 166.466 386.294 167.405C385.142 168.301 383.755 169.047 382.134 169.645C380.513 170.242 378.657 170.541 376.566 170.541ZM370.486 149.101H381.494V148.205C381.494 145.133 381.003 142.978 380.022 141.741C379.041 140.503 377.697 139.885 375.99 139.885C374.283 139.885 372.939 140.503 371.958 141.741C370.977 142.978 370.486 145.133 370.486 148.205V149.101Z" fill="white"/>
</svg>
