<svg width="160" height="161" viewBox="0 0 160 161" fill="none" xmlns="http://www.w3.org/2000/svg">
<path d="M80 160.227C85.5229 160.227 90 155.75 90 150.227C90 144.705 85.5229 140.227 80 140.227H36C27.1634 140.227 20 133.064 20 124.227V36.2274C20 27.3909 27.1634 20.2274 36 20.2274H110C115.523 20.2274 120 24.7046 120 30.2274C120 35.7503 124.477 40.2274 130 40.2274C135.523 40.2274 140 35.7503 140 30.2274V16.2274C140 7.39086 132.837 0.227417 124 0.227417H16C7.16344 0.227417 0 7.39086 0 16.2274V144.227C0 153.064 7.16344 160.227 16 160.227H80Z" fill="white"/>
<path d="M110 140.227C104.477 140.227 100 144.705 100 150.227C100 155.75 104.477 160.227 110 160.227H144C152.837 160.227 160 153.064 160 144.227V116.227C160 107.391 152.837 100.227 144 100.227H130C124.477 100.227 120 95.7503 120 90.2274C120 84.7046 124.477 80.2274 130 80.2274H150C155.523 80.2274 160 75.7503 160 70.2274C160 64.7046 155.523 60.2274 150 60.2274H116C107.163 60.2274 100 67.3909 100 76.2274V104.227C100 113.064 107.163 120.227 116 120.227H130C135.523 120.227 140 124.705 140 130.227C140 135.75 135.523 140.227 130 140.227H110Z" fill="white"/>
</svg>
