<svg width="60" height="111" viewBox="0 0 60 111" fill="none" xmlns="http://www.w3.org/2000/svg">
<path d="M0 100.5V10.5C0 4.97715 4.47715 0.5 10 0.5C15.5228 0.5 20 4.97715 20 10.5C20 16.0228 24.4772 20.5 30 20.5H40V10.5C40 4.97715 44.4772 0.5 50 0.5C55.5228 0.5 60 4.97715 60 10.5C60 16.0228 55.5228 20.5 50 20.5H40V40.5H44C52.8366 40.5 60 47.6634 60 56.5V100.5C60 106.023 55.5228 110.5 50 110.5C44.4772 110.5 40 106.023 40 100.5V40.5H36C27.1634 40.5 20 47.6634 20 56.5V75.5V100.5C20 106.023 15.5228 110.5 10 110.5C4.47715 110.5 0 106.023 0 100.5Z" fill="white"/>
</svg>
