<svg width="160" height="161" viewBox="0 0 160 161" fill="none" xmlns="http://www.w3.org/2000/svg">
<path d="M150 160.136H110C104.477 160.136 100 155.659 100 150.136C100 144.614 104.477 140.136 110 140.136C115.523 140.136 120 135.659 120 130.136V90.1365C120 84.6136 115.523 80.1365 110 80.1365C104.477 80.1365 100 75.6593 100 70.1365C100 64.6136 104.477 60.1365 110 60.1365H150C155.523 60.1365 160 64.6136 160 70.1365C160 75.6593 155.523 80.1365 150 80.1365C144.477 80.1365 140 84.6136 140 90.1365V130.136C140 135.659 144.477 140.136 150 140.136C155.523 140.136 160 144.614 160 150.136C160 155.659 155.523 160.136 150 160.136Z" fill="white"/>
<path d="M10 160.136H80C85.5229 160.136 90 155.659 90 150.136C90 144.614 85.5229 140.136 80 140.136H30C24.4772 140.136 20 135.659 20 130.136V30.1365C20 24.6136 24.4772 20.1365 30 20.1365H110C115.523 20.1365 120 24.6136 120 30.1365C120 35.6593 124.477 40.1365 130 40.1365C135.523 40.1365 140 35.6593 140 30.1365V10.1365C140 4.61363 135.523 0.136475 130 0.136475H10C4.47715 0.136475 0 4.61363 0 10.1365V150.136C0 155.659 4.47715 160.136 10 160.136Z" fill="white"/>
</svg>
